<mxfile host="Electron" modified="2024-06-09T09:33:17.736Z" agent="Mozilla/5.0 (Windows NT 10.0; Win64; x64) AppleWebKit/537.36 (KHTML, like Gecko) draw.io/22.1.2 Chrome/114.0.5735.289 Electron/25.9.4 Safari/537.36" etag="2PNZ802E4TmIF13ps8qi" version="22.1.2" type="device" pages="2">
  <diagram id="V-x8NphwG6Yx-LerKmcO" name="Server">
    <mxGraphModel dx="2026" dy="83" grid="1" gridSize="10" guides="1" tooltips="1" connect="1" arrows="1" fold="1" page="1" pageScale="1" pageWidth="850" pageHeight="1100" math="0" shadow="0">
      <root>
        <mxCell id="0" />
        <mxCell id="1" parent="0" />
        <mxCell id="2YDGhC9c4Y5ccJIp_NCI-57" value="" style="group" parent="1" vertex="1" connectable="0">
          <mxGeometry x="330" y="1410" width="1010" height="775" as="geometry" />
        </mxCell>
        <mxCell id="2YDGhC9c4Y5ccJIp_NCI-53" value="" style="rounded=0;whiteSpace=wrap;html=1;strokeColor=none;movable=1;resizable=1;rotatable=1;deletable=1;editable=1;locked=0;connectable=1;" parent="2YDGhC9c4Y5ccJIp_NCI-57" vertex="1">
          <mxGeometry width="1010" height="775" as="geometry" />
        </mxCell>
        <mxCell id="2YDGhC9c4Y5ccJIp_NCI-54" value="AWS Cloud" style="points=[[0,0],[0.25,0],[0.5,0],[0.75,0],[1,0],[1,0.25],[1,0.5],[1,0.75],[1,1],[0.75,1],[0.5,1],[0.25,1],[0,1],[0,0.75],[0,0.5],[0,0.25]];outlineConnect=0;html=1;whiteSpace=wrap;fontSize=12;fontStyle=0;container=1;pointerEvents=0;collapsible=0;recursiveResize=0;shape=mxgraph.aws4.group;grIcon=mxgraph.aws4.group_aws_cloud_alt;verticalAlign=top;align=left;spacingLeft=30;dashed=0;" parent="2YDGhC9c4Y5ccJIp_NCI-57" vertex="1">
          <mxGeometry x="120" y="31.59999999999991" width="860" height="708.4" as="geometry" />
        </mxCell>
        <mxCell id="2YDGhC9c4Y5ccJIp_NCI-37" value="Public subnet&lt;br&gt;10.0.1.0/24" style="points=[[0,0],[0.25,0],[0.5,0],[0.75,0],[1,0],[1,0.25],[1,0.5],[1,0.75],[1,1],[0.75,1],[0.5,1],[0.25,1],[0,1],[0,0.75],[0,0.5],[0,0.25]];outlineConnect=0;gradientColor=none;html=1;whiteSpace=wrap;fontSize=12;fontStyle=0;container=1;pointerEvents=0;collapsible=0;recursiveResize=0;shape=mxgraph.aws4.group;grIcon=mxgraph.aws4.group_security_group;grStroke=0;strokeColor=#7AA116;fillColor=#F2F6E8;verticalAlign=top;align=left;spacingLeft=30;fontColor=#248814;dashed=0;" parent="2YDGhC9c4Y5ccJIp_NCI-57" vertex="1">
          <mxGeometry x="339.5" y="515" width="230" height="160" as="geometry" />
        </mxCell>
        <mxCell id="2YDGhC9c4Y5ccJIp_NCI-17" value="Public subnet&lt;br&gt;10.0.0.0/24" style="points=[[0,0],[0.25,0],[0.5,0],[0.75,0],[1,0],[1,0.25],[1,0.5],[1,0.75],[1,1],[0.75,1],[0.5,1],[0.25,1],[0,1],[0,0.75],[0,0.5],[0,0.25]];outlineConnect=0;gradientColor=none;html=1;whiteSpace=wrap;fontSize=12;fontStyle=0;container=1;pointerEvents=0;collapsible=0;recursiveResize=0;shape=mxgraph.aws4.group;grIcon=mxgraph.aws4.group_security_group;grStroke=0;strokeColor=#7AA116;fillColor=#F2F6E8;verticalAlign=top;align=left;spacingLeft=30;fontColor=#248814;dashed=0;" parent="2YDGhC9c4Y5ccJIp_NCI-57" vertex="1">
          <mxGeometry x="340" y="310" width="230" height="160" as="geometry" />
        </mxCell>
        <mxCell id="2YDGhC9c4Y5ccJIp_NCI-21" value="VPC" style="points=[[0,0],[0.25,0],[0.5,0],[0.75,0],[1,0],[1,0.25],[1,0.5],[1,0.75],[1,1],[0.75,1],[0.5,1],[0.25,1],[0,1],[0,0.75],[0,0.5],[0,0.25]];outlineConnect=0;gradientColor=none;html=1;whiteSpace=wrap;fontSize=12;fontStyle=0;container=0;pointerEvents=0;collapsible=0;recursiveResize=0;shape=mxgraph.aws4.group;grIcon=mxgraph.aws4.group_vpc2;strokeColor=#8C4FFF;fillColor=none;verticalAlign=top;align=left;spacingLeft=30;fontColor=#AAB7B8;dashed=0;" parent="2YDGhC9c4Y5ccJIp_NCI-57" vertex="1">
          <mxGeometry x="232" y="250" width="720" height="460" as="geometry" />
        </mxCell>
        <mxCell id="2YDGhC9c4Y5ccJIp_NCI-22" value="Auto Scaling group" style="points=[[0,0],[0.25,0],[0.5,0],[0.75,0],[1,0],[1,0.25],[1,0.5],[1,0.75],[1,1],[0.75,1],[0.5,1],[0.25,1],[0,1],[0,0.75],[0,0.5],[0,0.25]];outlineConnect=0;gradientColor=none;html=1;whiteSpace=wrap;fontSize=12;fontStyle=0;container=1;pointerEvents=0;collapsible=0;recursiveResize=0;shape=mxgraph.aws4.groupCenter;grIcon=mxgraph.aws4.group_auto_scaling_group;grStroke=1;strokeColor=#D86613;fillColor=none;verticalAlign=top;align=center;fontColor=#D86613;dashed=1;spacingTop=25;" parent="2YDGhC9c4Y5ccJIp_NCI-57" vertex="1">
          <mxGeometry x="370" y="260" width="110" height="440" as="geometry" />
        </mxCell>
        <mxCell id="2YDGhC9c4Y5ccJIp_NCI-1" value="Cloudfront" style="sketch=0;points=[[0,0,0],[0.25,0,0],[0.5,0,0],[0.75,0,0],[1,0,0],[0,1,0],[0.25,1,0],[0.5,1,0],[0.75,1,0],[1,1,0],[0,0.25,0],[0,0.5,0],[0,0.75,0],[1,0.25,0],[1,0.5,0],[1,0.75,0]];outlineConnect=0;fontColor=#232F3E;fillColor=#8C4FFF;strokeColor=#ffffff;dashed=0;verticalLabelPosition=bottom;verticalAlign=top;align=center;html=1;fontSize=12;fontStyle=0;aspect=fixed;shape=mxgraph.aws4.resourceIcon;resIcon=mxgraph.aws4.cloudfront;" parent="2YDGhC9c4Y5ccJIp_NCI-57" vertex="1">
          <mxGeometry x="259" y="154" width="50" height="50" as="geometry" />
        </mxCell>
        <mxCell id="2YDGhC9c4Y5ccJIp_NCI-5" value="Client" style="sketch=0;outlineConnect=0;fontColor=#232F3E;gradientColor=none;strokeColor=#232F3E;fillColor=#ffffff;dashed=0;verticalLabelPosition=bottom;verticalAlign=top;align=center;html=1;fontSize=12;fontStyle=0;aspect=fixed;shape=mxgraph.aws4.resourceIcon;resIcon=mxgraph.aws4.client;" parent="2YDGhC9c4Y5ccJIp_NCI-57" vertex="1">
          <mxGeometry x="24" y="149" width="60" height="60" as="geometry" />
        </mxCell>
        <mxCell id="2YDGhC9c4Y5ccJIp_NCI-6" value="Route 53" style="sketch=0;points=[[0,0,0],[0.25,0,0],[0.5,0,0],[0.75,0,0],[1,0,0],[0,1,0],[0.25,1,0],[0.5,1,0],[0.75,1,0],[1,1,0],[0,0.25,0],[0,0.5,0],[0,0.75,0],[1,0.25,0],[1,0.5,0],[1,0.75,0]];outlineConnect=0;fontColor=#232F3E;fillColor=#8C4FFF;strokeColor=#ffffff;dashed=0;verticalLabelPosition=bottom;verticalAlign=top;align=center;html=1;fontSize=12;fontStyle=0;aspect=fixed;shape=mxgraph.aws4.resourceIcon;resIcon=mxgraph.aws4.route_53;" parent="2YDGhC9c4Y5ccJIp_NCI-57" vertex="1">
          <mxGeometry x="144" y="154" width="50" height="50" as="geometry" />
        </mxCell>
        <mxCell id="2YDGhC9c4Y5ccJIp_NCI-7" style="edgeStyle=orthogonalEdgeStyle;rounded=0;orthogonalLoop=1;jettySize=auto;html=1;entryX=0;entryY=0.5;entryDx=0;entryDy=0;entryPerimeter=0;" parent="2YDGhC9c4Y5ccJIp_NCI-57" source="2YDGhC9c4Y5ccJIp_NCI-5" target="2YDGhC9c4Y5ccJIp_NCI-6" edge="1">
          <mxGeometry relative="1" as="geometry" />
        </mxCell>
        <mxCell id="2YDGhC9c4Y5ccJIp_NCI-9" style="edgeStyle=orthogonalEdgeStyle;rounded=0;orthogonalLoop=1;jettySize=auto;html=1;exitX=1;exitY=0.5;exitDx=0;exitDy=0;exitPerimeter=0;entryX=0;entryY=0.5;entryDx=0;entryDy=0;entryPerimeter=0;" parent="2YDGhC9c4Y5ccJIp_NCI-57" source="2YDGhC9c4Y5ccJIp_NCI-6" target="2YDGhC9c4Y5ccJIp_NCI-1" edge="1">
          <mxGeometry relative="1" as="geometry" />
        </mxCell>
        <mxCell id="2YDGhC9c4Y5ccJIp_NCI-31" style="edgeStyle=orthogonalEdgeStyle;rounded=0;orthogonalLoop=1;jettySize=auto;html=1;" parent="2YDGhC9c4Y5ccJIp_NCI-57" source="2YDGhC9c4Y5ccJIp_NCI-1" target="2YDGhC9c4Y5ccJIp_NCI-12" edge="1">
          <mxGeometry relative="1" as="geometry" />
        </mxCell>
        <mxCell id="2YDGhC9c4Y5ccJIp_NCI-2" value="S3 Static Website" style="sketch=0;points=[[0,0,0],[0.25,0,0],[0.5,0,0],[0.75,0,0],[1,0,0],[0,1,0],[0.25,1,0],[0.5,1,0],[0.75,1,0],[1,1,0],[0,0.25,0],[0,0.5,0],[0,0.75,0],[1,0.25,0],[1,0.5,0],[1,0.75,0]];outlineConnect=0;fontColor=#232F3E;fillColor=#7AA116;strokeColor=#ffffff;dashed=0;verticalLabelPosition=bottom;verticalAlign=top;align=center;html=1;fontSize=12;fontStyle=0;aspect=fixed;shape=mxgraph.aws4.resourceIcon;resIcon=mxgraph.aws4.s3;" parent="2YDGhC9c4Y5ccJIp_NCI-57" vertex="1">
          <mxGeometry x="260" y="50" width="48" height="48" as="geometry" />
        </mxCell>
        <mxCell id="2YDGhC9c4Y5ccJIp_NCI-30" style="edgeStyle=orthogonalEdgeStyle;rounded=0;orthogonalLoop=1;jettySize=auto;html=1;entryX=0.5;entryY=1;entryDx=0;entryDy=0;entryPerimeter=0;" parent="2YDGhC9c4Y5ccJIp_NCI-57" source="2YDGhC9c4Y5ccJIp_NCI-1" target="2YDGhC9c4Y5ccJIp_NCI-2" edge="1">
          <mxGeometry relative="1" as="geometry" />
        </mxCell>
        <mxCell id="2YDGhC9c4Y5ccJIp_NCI-13" value="NAT Gateway" style="sketch=0;outlineConnect=0;fontColor=#232F3E;gradientColor=none;fillColor=#8C4FFF;strokeColor=none;dashed=0;verticalLabelPosition=bottom;verticalAlign=top;align=center;html=1;fontSize=12;fontStyle=0;aspect=fixed;pointerEvents=1;shape=mxgraph.aws4.nat_gateway;" parent="2YDGhC9c4Y5ccJIp_NCI-57" vertex="1">
          <mxGeometry x="518.5" y="326" width="48" height="48" as="geometry" />
        </mxCell>
        <mxCell id="2YDGhC9c4Y5ccJIp_NCI-16" value="EC2 Web Server&lt;br&gt;(2xm5a.4xlarge)" style="sketch=0;points=[[0,0,0],[0.25,0,0],[0.5,0,0],[0.75,0,0],[1,0,0],[0,1,0],[0.25,1,0],[0.5,1,0],[0.75,1,0],[1,1,0],[0,0.25,0],[0,0.5,0],[0,0.75,0],[1,0.25,0],[1,0.5,0],[1,0.75,0]];outlineConnect=0;fontColor=#232F3E;fillColor=#ED7100;strokeColor=#ffffff;dashed=0;verticalLabelPosition=bottom;verticalAlign=top;align=center;html=1;fontSize=12;fontStyle=0;aspect=fixed;shape=mxgraph.aws4.resourceIcon;resIcon=mxgraph.aws4.ec2;" parent="2YDGhC9c4Y5ccJIp_NCI-57" vertex="1">
          <mxGeometry x="400" y="368" width="48" height="48" as="geometry" />
        </mxCell>
        <mxCell id="2YDGhC9c4Y5ccJIp_NCI-12" value="Load Balacer" style="sketch=0;outlineConnect=0;fontColor=#232F3E;gradientColor=none;fillColor=#8C4FFF;strokeColor=none;dashed=0;verticalLabelPosition=bottom;verticalAlign=top;align=center;html=1;fontSize=12;fontStyle=0;aspect=fixed;pointerEvents=1;shape=mxgraph.aws4.application_load_balancer;" parent="2YDGhC9c4Y5ccJIp_NCI-57" vertex="1">
          <mxGeometry x="259" y="465" width="50" height="50" as="geometry" />
        </mxCell>
        <mxCell id="2YDGhC9c4Y5ccJIp_NCI-18" value="Private subnet&lt;br&gt;10.0.2.0/24" style="points=[[0,0],[0.25,0],[0.5,0],[0.75,0],[1,0],[1,0.25],[1,0.5],[1,0.75],[1,1],[0.75,1],[0.5,1],[0.25,1],[0,1],[0,0.75],[0,0.5],[0,0.25]];outlineConnect=0;gradientColor=none;html=1;whiteSpace=wrap;fontSize=12;fontStyle=0;container=1;pointerEvents=0;collapsible=0;recursiveResize=0;shape=mxgraph.aws4.group;grIcon=mxgraph.aws4.group_security_group;grStroke=0;strokeColor=#00A4A6;fillColor=#E6F6F7;verticalAlign=top;align=left;spacingLeft=30;fontColor=#147EBA;dashed=0;" parent="2YDGhC9c4Y5ccJIp_NCI-57" vertex="1">
          <mxGeometry x="699" y="310" width="243" height="160" as="geometry" />
        </mxCell>
        <mxCell id="2YDGhC9c4Y5ccJIp_NCI-35" style="edgeStyle=orthogonalEdgeStyle;rounded=0;orthogonalLoop=1;jettySize=auto;html=1;exitX=1;exitY=0.5;exitDx=0;exitDy=0;exitPerimeter=0;entryX=0;entryY=0.5;entryDx=0;entryDy=0;" parent="2YDGhC9c4Y5ccJIp_NCI-18" source="2YDGhC9c4Y5ccJIp_NCI-26" target="2YDGhC9c4Y5ccJIp_NCI-14" edge="1">
          <mxGeometry relative="1" as="geometry" />
        </mxCell>
        <mxCell id="2YDGhC9c4Y5ccJIp_NCI-26" value="EC2 App Server&lt;br&gt;(m5a.4xlarge)" style="sketch=0;points=[[0,0,0],[0.25,0,0],[0.5,0,0],[0.75,0,0],[1,0,0],[0,1,0],[0.25,1,0],[0.5,1,0],[0.75,1,0],[1,1,0],[0,0.25,0],[0,0.5,0],[0,0.75,0],[1,0.25,0],[1,0.5,0],[1,0.75,0]];outlineConnect=0;fontColor=#232F3E;fillColor=#ED7100;strokeColor=#ffffff;dashed=0;verticalLabelPosition=bottom;verticalAlign=top;align=center;html=1;fontSize=12;fontStyle=0;aspect=fixed;shape=mxgraph.aws4.resourceIcon;resIcon=mxgraph.aws4.ec2;" parent="2YDGhC9c4Y5ccJIp_NCI-18" vertex="1">
          <mxGeometry x="50" y="59" width="48" height="48" as="geometry" />
        </mxCell>
        <mxCell id="2YDGhC9c4Y5ccJIp_NCI-14" value="Database Server&lt;br&gt;(db.m5.4xlarge)" style="image;aspect=fixed;perimeter=ellipsePerimeter;html=1;align=center;shadow=0;dashed=0;spacingTop=3;image=img/lib/active_directory/database.svg;labelBackgroundColor=none;" parent="2YDGhC9c4Y5ccJIp_NCI-18" vertex="1">
          <mxGeometry x="153" y="64.5" width="50" height="37" as="geometry" />
        </mxCell>
        <mxCell id="2YDGhC9c4Y5ccJIp_NCI-33" value="Load Balacer" style="sketch=0;outlineConnect=0;fontColor=#232F3E;gradientColor=none;fillColor=#8C4FFF;strokeColor=none;dashed=0;verticalLabelPosition=bottom;verticalAlign=top;align=center;html=1;fontSize=12;fontStyle=0;aspect=fixed;pointerEvents=1;shape=mxgraph.aws4.application_load_balancer;" parent="2YDGhC9c4Y5ccJIp_NCI-57" vertex="1">
          <mxGeometry x="629" y="465" width="50" height="50" as="geometry" />
        </mxCell>
        <mxCell id="2YDGhC9c4Y5ccJIp_NCI-36" style="edgeStyle=orthogonalEdgeStyle;rounded=0;orthogonalLoop=1;jettySize=auto;html=1;entryX=0;entryY=0.5;entryDx=0;entryDy=0;entryPerimeter=0;" parent="2YDGhC9c4Y5ccJIp_NCI-57" source="2YDGhC9c4Y5ccJIp_NCI-33" target="2YDGhC9c4Y5ccJIp_NCI-26" edge="1">
          <mxGeometry relative="1" as="geometry">
            <Array as="points">
              <mxPoint x="690" y="480" />
              <mxPoint x="690" y="393" />
            </Array>
          </mxGeometry>
        </mxCell>
        <mxCell id="2YDGhC9c4Y5ccJIp_NCI-38" value="NAT Gateway" style="sketch=0;outlineConnect=0;fontColor=#232F3E;gradientColor=none;fillColor=#8C4FFF;strokeColor=none;dashed=0;verticalLabelPosition=bottom;verticalAlign=top;align=center;html=1;fontSize=12;fontStyle=0;aspect=fixed;pointerEvents=1;shape=mxgraph.aws4.nat_gateway;" parent="2YDGhC9c4Y5ccJIp_NCI-57" vertex="1">
          <mxGeometry x="518.5" y="526" width="48" height="48" as="geometry" />
        </mxCell>
        <mxCell id="2YDGhC9c4Y5ccJIp_NCI-34" style="edgeStyle=orthogonalEdgeStyle;rounded=0;orthogonalLoop=1;jettySize=auto;html=1;exitX=1;exitY=0.5;exitDx=0;exitDy=0;exitPerimeter=0;" parent="2YDGhC9c4Y5ccJIp_NCI-57" source="2YDGhC9c4Y5ccJIp_NCI-1" target="2YDGhC9c4Y5ccJIp_NCI-33" edge="1">
          <mxGeometry relative="1" as="geometry" />
        </mxCell>
        <mxCell id="2YDGhC9c4Y5ccJIp_NCI-39" value="EC2 Web Server&lt;br&gt;(2xm5a.4xlarge)" style="sketch=0;points=[[0,0,0],[0.25,0,0],[0.5,0,0],[0.75,0,0],[1,0,0],[0,1,0],[0.25,1,0],[0.5,1,0],[0.75,1,0],[1,1,0],[0,0.25,0],[0,0.5,0],[0,0.75,0],[1,0.25,0],[1,0.5,0],[1,0.75,0]];outlineConnect=0;fontColor=#232F3E;fillColor=#ED7100;strokeColor=#ffffff;dashed=0;verticalLabelPosition=bottom;verticalAlign=top;align=center;html=1;fontSize=12;fontStyle=0;aspect=fixed;shape=mxgraph.aws4.resourceIcon;resIcon=mxgraph.aws4.ec2;" parent="2YDGhC9c4Y5ccJIp_NCI-57" vertex="1">
          <mxGeometry x="398.5" y="568" width="48" height="48" as="geometry" />
        </mxCell>
        <mxCell id="2YDGhC9c4Y5ccJIp_NCI-40" value="Private subnet&lt;br&gt;10.0.3.0/24" style="points=[[0,0],[0.25,0],[0.5,0],[0.75,0],[1,0],[1,0.25],[1,0.5],[1,0.75],[1,1],[0.75,1],[0.5,1],[0.25,1],[0,1],[0,0.75],[0,0.5],[0,0.25]];outlineConnect=0;gradientColor=none;html=1;whiteSpace=wrap;fontSize=12;fontStyle=0;container=1;pointerEvents=0;collapsible=0;recursiveResize=0;shape=mxgraph.aws4.group;grIcon=mxgraph.aws4.group_security_group;grStroke=0;strokeColor=#00A4A6;fillColor=#E6F6F7;verticalAlign=top;align=left;spacingLeft=30;fontColor=#147EBA;dashed=0;" parent="2YDGhC9c4Y5ccJIp_NCI-57" vertex="1">
          <mxGeometry x="697.5" y="510" width="243" height="160" as="geometry" />
        </mxCell>
        <mxCell id="2YDGhC9c4Y5ccJIp_NCI-41" style="edgeStyle=orthogonalEdgeStyle;rounded=0;orthogonalLoop=1;jettySize=auto;html=1;exitX=1;exitY=0.5;exitDx=0;exitDy=0;exitPerimeter=0;entryX=0;entryY=0.5;entryDx=0;entryDy=0;" parent="2YDGhC9c4Y5ccJIp_NCI-40" source="2YDGhC9c4Y5ccJIp_NCI-42" target="2YDGhC9c4Y5ccJIp_NCI-43" edge="1">
          <mxGeometry relative="1" as="geometry" />
        </mxCell>
        <mxCell id="2YDGhC9c4Y5ccJIp_NCI-42" value="EC2 App Server&lt;br&gt;(m5a.4xlarge)" style="sketch=0;points=[[0,0,0],[0.25,0,0],[0.5,0,0],[0.75,0,0],[1,0,0],[0,1,0],[0.25,1,0],[0.5,1,0],[0.75,1,0],[1,1,0],[0,0.25,0],[0,0.5,0],[0,0.75,0],[1,0.25,0],[1,0.5,0],[1,0.75,0]];outlineConnect=0;fontColor=#232F3E;fillColor=#ED7100;strokeColor=#ffffff;dashed=0;verticalLabelPosition=bottom;verticalAlign=top;align=center;html=1;fontSize=12;fontStyle=0;aspect=fixed;shape=mxgraph.aws4.resourceIcon;resIcon=mxgraph.aws4.ec2;" parent="2YDGhC9c4Y5ccJIp_NCI-40" vertex="1">
          <mxGeometry x="50" y="59" width="48" height="48" as="geometry" />
        </mxCell>
        <mxCell id="2YDGhC9c4Y5ccJIp_NCI-43" value="Database Server&lt;br&gt;Replica&lt;br&gt;(db.m5.4xlarge)" style="image;aspect=fixed;perimeter=ellipsePerimeter;html=1;align=center;shadow=0;dashed=0;spacingTop=3;image=img/lib/active_directory/database.svg;labelBackgroundColor=none;" parent="2YDGhC9c4Y5ccJIp_NCI-40" vertex="1">
          <mxGeometry x="153" y="64.5" width="50" height="37" as="geometry" />
        </mxCell>
        <mxCell id="2YDGhC9c4Y5ccJIp_NCI-45" style="edgeStyle=orthogonalEdgeStyle;rounded=0;orthogonalLoop=1;jettySize=auto;html=1;entryX=0;entryY=0.5;entryDx=0;entryDy=0;entryPerimeter=0;" parent="2YDGhC9c4Y5ccJIp_NCI-57" source="2YDGhC9c4Y5ccJIp_NCI-33" target="2YDGhC9c4Y5ccJIp_NCI-42" edge="1">
          <mxGeometry relative="1" as="geometry">
            <Array as="points">
              <mxPoint x="690" y="500" />
              <mxPoint x="690" y="593" />
            </Array>
          </mxGeometry>
        </mxCell>
        <mxCell id="2YDGhC9c4Y5ccJIp_NCI-48" style="edgeStyle=orthogonalEdgeStyle;rounded=0;orthogonalLoop=1;jettySize=auto;html=1;entryX=0;entryY=0.5;entryDx=0;entryDy=0;entryPerimeter=0;" parent="2YDGhC9c4Y5ccJIp_NCI-57" source="2YDGhC9c4Y5ccJIp_NCI-12" target="2YDGhC9c4Y5ccJIp_NCI-16" edge="1">
          <mxGeometry relative="1" as="geometry">
            <Array as="points">
              <mxPoint x="320" y="480" />
              <mxPoint x="320" y="392" />
            </Array>
          </mxGeometry>
        </mxCell>
        <mxCell id="2YDGhC9c4Y5ccJIp_NCI-49" style="edgeStyle=orthogonalEdgeStyle;rounded=0;orthogonalLoop=1;jettySize=auto;html=1;entryX=0;entryY=0.5;entryDx=0;entryDy=0;entryPerimeter=0;" parent="2YDGhC9c4Y5ccJIp_NCI-57" source="2YDGhC9c4Y5ccJIp_NCI-12" target="2YDGhC9c4Y5ccJIp_NCI-39" edge="1">
          <mxGeometry relative="1" as="geometry">
            <Array as="points">
              <mxPoint x="320" y="500" />
              <mxPoint x="320" y="592" />
            </Array>
          </mxGeometry>
        </mxCell>
        <mxCell id="2YDGhC9c4Y5ccJIp_NCI-51" value="Auto Scaling group" style="points=[[0,0],[0.25,0],[0.5,0],[0.75,0],[1,0],[1,0.25],[1,0.5],[1,0.75],[1,1],[0.75,1],[0.5,1],[0.25,1],[0,1],[0,0.75],[0,0.5],[0,0.25]];outlineConnect=0;gradientColor=none;html=1;whiteSpace=wrap;fontSize=12;fontStyle=0;container=1;pointerEvents=0;collapsible=0;recursiveResize=0;shape=mxgraph.aws4.groupCenter;grIcon=mxgraph.aws4.group_auto_scaling_group;grStroke=1;strokeColor=#D86613;fillColor=none;verticalAlign=top;align=center;fontColor=#D86613;dashed=1;spacingTop=25;" parent="2YDGhC9c4Y5ccJIp_NCI-57" vertex="1">
          <mxGeometry x="718" y="260" width="110" height="440" as="geometry" />
        </mxCell>
        <mxCell id="9xIPsguqq0T3SRh8n9W--1" value="Internet Gateway" style="sketch=0;outlineConnect=0;fontColor=#232F3E;gradientColor=none;fillColor=#8C4FFF;strokeColor=none;dashed=0;verticalLabelPosition=bottom;verticalAlign=top;align=center;html=1;fontSize=12;fontStyle=0;aspect=fixed;pointerEvents=1;shape=mxgraph.aws4.internet_gateway;" vertex="1" parent="2YDGhC9c4Y5ccJIp_NCI-57">
          <mxGeometry x="600" y="220" width="50" height="50" as="geometry" />
        </mxCell>
        <mxCell id="9xIPsguqq0T3SRh8n9W--4" value="" style="endArrow=classic;html=1;rounded=0;exitX=0;exitY=0.25;exitDx=0;exitDy=0;" edge="1" parent="2YDGhC9c4Y5ccJIp_NCI-57" source="2YDGhC9c4Y5ccJIp_NCI-40" target="2YDGhC9c4Y5ccJIp_NCI-38">
          <mxGeometry width="50" height="50" relative="1" as="geometry">
            <mxPoint x="490" y="540" as="sourcePoint" />
            <mxPoint x="540" y="490" as="targetPoint" />
          </mxGeometry>
        </mxCell>
        <mxCell id="9xIPsguqq0T3SRh8n9W--7" value="" style="endArrow=classic;html=1;rounded=0;exitX=0;exitY=0.25;exitDx=0;exitDy=0;" edge="1" parent="2YDGhC9c4Y5ccJIp_NCI-57" source="2YDGhC9c4Y5ccJIp_NCI-18" target="2YDGhC9c4Y5ccJIp_NCI-13">
          <mxGeometry width="50" height="50" relative="1" as="geometry">
            <mxPoint x="697.5" y="359.9000000000001" as="sourcePoint" />
            <mxPoint x="564" y="325.99523809523816" as="targetPoint" />
          </mxGeometry>
        </mxCell>
      </root>
    </mxGraphModel>
  </diagram>
  <diagram id="VWpILmxsUlt1x2BQRuQt" name="Serverless">
    <mxGraphModel dx="1418" dy="828" grid="1" gridSize="10" guides="1" tooltips="1" connect="1" arrows="1" fold="1" page="1" pageScale="1" pageWidth="850" pageHeight="1100" math="0" shadow="0">
      <root>
        <mxCell id="0" />
        <mxCell id="1" parent="0" />
        <mxCell id="uIRy5_l2qU9jPL2Mrv0j-2" value="" style="rounded=0;whiteSpace=wrap;html=1;strokeColor=none;" parent="1" vertex="1">
          <mxGeometry x="90" y="860" width="780" height="500" as="geometry" />
        </mxCell>
        <mxCell id="uIRy5_l2qU9jPL2Mrv0j-3" value="AWS Cloud" style="points=[[0,0],[0.25,0],[0.5,0],[0.75,0],[1,0],[1,0.25],[1,0.5],[1,0.75],[1,1],[0.75,1],[0.5,1],[0.25,1],[0,1],[0,0.75],[0,0.5],[0,0.25]];outlineConnect=0;html=1;whiteSpace=wrap;fontSize=12;fontStyle=0;container=1;pointerEvents=0;collapsible=0;recursiveResize=0;shape=mxgraph.aws4.group;grIcon=mxgraph.aws4.group_aws_cloud_alt;verticalAlign=top;align=left;spacingLeft=30;dashed=0;" parent="1" vertex="1">
          <mxGeometry x="182.7956989247312" y="900" width="651.5053763440861" height="420" as="geometry" />
        </mxCell>
        <mxCell id="VzplyFqLDUjWkFrviKMW-2" style="edgeStyle=orthogonalEdgeStyle;rounded=0;orthogonalLoop=1;jettySize=auto;html=1;exitX=0.5;exitY=0;exitDx=0;exitDy=0;exitPerimeter=0;" parent="1" source="uIRy5_l2qU9jPL2Mrv0j-5" target="VzplyFqLDUjWkFrviKMW-1" edge="1">
          <mxGeometry relative="1" as="geometry" />
        </mxCell>
        <mxCell id="uIRy5_l2qU9jPL2Mrv0j-5" value="Cloudfront" style="sketch=0;points=[[0,0,0],[0.25,0,0],[0.5,0,0],[0.75,0,0],[1,0,0],[0,1,0],[0.25,1,0],[0.5,1,0],[0.75,1,0],[1,1,0],[0,0.25,0],[0,0.5,0],[0,0.75,0],[1,0.25,0],[1,0.5,0],[1,0.75,0]];outlineConnect=0;fontColor=#232F3E;fillColor=#8C4FFF;strokeColor=#ffffff;dashed=0;verticalLabelPosition=bottom;verticalAlign=top;align=center;html=1;fontSize=12;fontStyle=0;aspect=fixed;shape=mxgraph.aws4.resourceIcon;resIcon=mxgraph.aws4.cloudfront;" parent="1" vertex="1">
          <mxGeometry x="390.72" y="1090" width="50" height="50" as="geometry" />
        </mxCell>
        <mxCell id="uIRy5_l2qU9jPL2Mrv0j-6" value="S3 Static Website" style="sketch=0;points=[[0,0,0],[0.25,0,0],[0.5,0,0],[0.75,0,0],[1,0,0],[0,1,0],[0.25,1,0],[0.5,1,0],[0.75,1,0],[1,1,0],[0,0.25,0],[0,0.5,0],[0,0.75,0],[1,0.25,0],[1,0.5,0],[1,0.75,0]];outlineConnect=0;fontColor=#232F3E;fillColor=#7AA116;strokeColor=#ffffff;dashed=0;verticalLabelPosition=bottom;verticalAlign=top;align=center;html=1;fontSize=12;fontStyle=0;aspect=fixed;shape=mxgraph.aws4.resourceIcon;resIcon=mxgraph.aws4.s3;" parent="1" vertex="1">
          <mxGeometry x="390.72" y="1210" width="48" height="48" as="geometry" />
        </mxCell>
        <mxCell id="uIRy5_l2qU9jPL2Mrv0j-7" value="" style="endArrow=classic;startArrow=classic;html=1;rounded=0;entryX=0.5;entryY=0;entryDx=0;entryDy=0;entryPerimeter=0;exitX=0.5;exitY=1;exitDx=0;exitDy=0;exitPerimeter=0;" parent="1" source="uIRy5_l2qU9jPL2Mrv0j-5" target="uIRy5_l2qU9jPL2Mrv0j-6" edge="1">
          <mxGeometry width="50" height="50" relative="1" as="geometry">
            <mxPoint x="440.72" y="1115" as="sourcePoint" />
            <mxPoint x="470.72" y="1060" as="targetPoint" />
          </mxGeometry>
        </mxCell>
        <mxCell id="VzplyFqLDUjWkFrviKMW-4" style="edgeStyle=orthogonalEdgeStyle;rounded=0;orthogonalLoop=1;jettySize=auto;html=1;exitX=1;exitY=0.5;exitDx=0;exitDy=0;exitPerimeter=0;entryX=0;entryY=0.5;entryDx=0;entryDy=0;" parent="1" source="uIRy5_l2qU9jPL2Mrv0j-9" target="uIRy5_l2qU9jPL2Mrv0j-16" edge="1">
          <mxGeometry relative="1" as="geometry" />
        </mxCell>
        <mxCell id="uIRy5_l2qU9jPL2Mrv0j-9" value="Lambda Function" style="sketch=0;points=[[0,0,0],[0.25,0,0],[0.5,0,0],[0.75,0,0],[1,0,0],[0,1,0],[0.25,1,0],[0.5,1,0],[0.75,1,0],[1,1,0],[0,0.25,0],[0,0.5,0],[0,0.75,0],[1,0.25,0],[1,0.5,0],[1,0.75,0]];outlineConnect=0;fontColor=#232F3E;fillColor=#ED7100;strokeColor=#ffffff;dashed=0;verticalLabelPosition=bottom;verticalAlign=top;align=center;html=1;fontSize=12;fontStyle=0;aspect=fixed;shape=mxgraph.aws4.resourceIcon;resIcon=mxgraph.aws4.lambda;" parent="1" vertex="1">
          <mxGeometry x="639.9999999999999" y="1090" width="48" height="48" as="geometry" />
        </mxCell>
        <mxCell id="uIRy5_l2qU9jPL2Mrv0j-10" style="edgeStyle=orthogonalEdgeStyle;rounded=0;orthogonalLoop=1;jettySize=auto;html=1;" parent="1" source="uIRy5_l2qU9jPL2Mrv0j-12" target="uIRy5_l2qU9jPL2Mrv0j-9" edge="1">
          <mxGeometry relative="1" as="geometry" />
        </mxCell>
        <mxCell id="uIRy5_l2qU9jPL2Mrv0j-12" value="API Gateway" style="sketch=0;points=[[0,0,0],[0.25,0,0],[0.5,0,0],[0.75,0,0],[1,0,0],[0,1,0],[0.25,1,0],[0.5,1,0],[0.75,1,0],[1,1,0],[0,0.25,0],[0,0.5,0],[0,0.75,0],[1,0.25,0],[1,0.5,0],[1,0.75,0]];outlineConnect=0;fontColor=#232F3E;fillColor=#E7157B;strokeColor=#ffffff;dashed=0;verticalLabelPosition=bottom;verticalAlign=top;align=center;html=1;fontSize=12;fontStyle=0;aspect=fixed;shape=mxgraph.aws4.resourceIcon;resIcon=mxgraph.aws4.api_gateway;" parent="1" vertex="1">
          <mxGeometry x="520" y="1090" width="48" height="48" as="geometry" />
        </mxCell>
        <mxCell id="uIRy5_l2qU9jPL2Mrv0j-16" value="DynamoDB" style="shape=image;verticalLabelPosition=bottom;labelBackgroundColor=default;verticalAlign=top;aspect=fixed;imageAspect=0;image=data:image/png,iVBORw0KGgoAAAANSUhEUgAAASwAAAEsCAYAAAB5fY51AAAACXBIWXMAACxKAAAsSgF3enRNAAAgAElEQVR4nO19CbwcVZX+fY9HWPLCnk32LC4sJnEGRJMggkKCyyirjjMjy4yOw/p3QQQXBkVBUVmCKyjquAHizKgQcESHBEZ0ZpII4kISdrOwBMgGQab/v1Pd1V1V3/lO3equ7tf9+n6/3/ul6tzvnnuquurLvVWn7h047Nh7Ky6JAbqTpnnyfP0liwZK9pfcgRqEB2jreaEOeBWD5+svTSvXX5ZHa5XQbnPnhe5krkVSoOzSAsKD65zwoMCTx09F6+02dV7ADgbVnDxPg0Cu0J00zZPn6y9ZVCnZX3IHahAeoK3nhTrgVQyer780rVx/WR6tVUK7zZ0XupO5FkmBsksLCA+uc8KDAk8ePxWtt9vUeQE7GFRz8jyhYEEF4hROCOcF0SJgRfxKC6JFEERLL+CnojdFSxcsqECcwgnhvCBaBKyIX2lBtAiCaOkF/FT0nmgNMi5W4MQgWjqCaOk8WiuIVmn+INpRIlqDmpFX4MQgWjqCaOk8WiuIVmn+INpRIFqDmhFg/ZjJkiBaKoJo6TxaK4hWaf4g2h4XrUGjRbWCspOmBdFSEURL59FaQbRK8wfR9rBoDQKBcLGME4No6QiipfNorSBapfmDaHtUtAZVgs5VyjgxiJaOIFo6j9YKolWaP4i2B0VrkBKQS8o4MYiWjiBaOo/WCqJVmj+ItsdES8nDoi1SmkUMoqUjiJbOo7WCaJXmD6LtIdFSBMtskdIsYhAtHUG0dB6tFUSrNH8QbY+IFhEss0VKs4hBtHQE0dJ5tFYQrdL8QbQ9IFqDPEizRUqziEG0dATR0nm0VhCt0vxBtF0uWoN2kGaLlGYRg2jpCKKl82itIFql+YNou1i06kNCHqTZIqVZxCBaOoJo6TxaK4hWaf4g2i4VrVSmOw/SbJHSLGIQLR1BtHQerRVEqzR/EG0XihZkuvMgzRYpzSIG0dIRREvn0VpBtErzB9F2mWipme48SLNFSrOIQbR0BNHSebRWEK3S/EG0XSRaNNOdB2m2SGkWMYiWjiBaOo/WCqJVmj+ItktES8nDCqKlgvCgBuEBgmi11C6tFUSrNH8QbReIliJYaQYP0myR0ixiEC0dQbR0Hq0VRKs0fxDtCIsWEax0BR6k2SKlWcQgWjqCaOk8WiuIVmn+INoRFC17TvcgWjoID2oQHiCIVkvt0lpBtErzB9GOkGjlz+keREsH4UENwgME0WqpXVoriFZp/iDaERAtvzndg2jpIDyoQXiAIFottUtrBdEqzR9E22HR8p/TPYiWDsKDGoQHCKLVUru0VhCt0vxBtB0ULch0507ThTzIAv6sHzNZEkRLRRAtnUdrBdEqzR9E2yHRUjPdudN0IQ+ygD/rx0yWBNFSEURL59FaQbRK8wfRdkC0aKY7d5ou5EEW8Gf9mMmSIFoqgmjpPForiFZp/iDaNouWkodFzxzl8SAL+LN+zGRJEC0VQbR0Hq0VRKs0fxBtG0VLESxnnTnK40EW8Gf9mMmSIFoqgmjpPForiFZp/iDaNokWESxnnTnK40EW8Gf9mMmSIFoqgmjpPForiFZp/iDaNoiWd6Z7EC2dF0TLA0G0dFi/E71VOM8sIDy4zgkPCkZItAplugfR0nlBtDwQREuH9TvRW4XzzALCg+uc8KBgBESrcKZ7EC2dF0TLA0G0dFi/E71VOM8sIDy4zgkPCjosWoMVfkbUCkV4PMgC/qwfM1kSREtFEC2dR2sF0SrNH0Rbgr9BCJSSnXXmKI8HWcCf9WMmS4JoqQiipfNorSBapfmDaFv011jmi58R7jiIlsoLouWBIFo6rN+J3iqcZxYQHlznhAcFHRCtwXQ5PSPccRAtlRdEywNBtHRYvxO9VTjPLCA8uM4JDwraLFqQhxVEiyCIluaAVzF4vv7StCBa2q55FLSp3hUtECwXRAuKtSL4MQkviJYHgmjpsH4neqtwnllAeHCdEx4UtEm0VMFyQbSgWCuCH5Pwgmh5IIiWDut3orcK55kFhAfXOeFBQRtEy8x0D6JFEERLc8CrGDxff2laEC1t1zwK2lRviVZupnsQLYIgWpoDXsXg+fpL04JoabvmUdCmeke0vDLdg2gRBNHSHPAqBs/XX5oWREvbNY+CNtUbouU9p3sQLYIgWpoDXsXg+fpL04JoabvmUdCmul+0Cs3pHkSLIIiW5oBXMXi+/tK0IFrarnkUtKnuFq3Cc7oH0SIIoqU54FUMnq+/NC2IlrZrHgVtqntFawgrDMAmuq24AQ+er79koQQ50Kq/VBknptviPF9/6fAS58jgNdMu1KgZJo0fchN32zrambHftvXiaXuPccPbb1XfHzt20E3daww054M1j/85+kti2e+ere+teGiL27Dp/6IYlv3+WfCYPiTzx05U8uOJaA2U6C/Lg/NOeBQGr7nzol8f2d10CecZzmG3Yc5c54QHBZ687KkYOPTNyxQdG1A3keXH8/WXLLR/L09/A3QnTfPk+fpLh1eev+HtB93UfbZ1k3YbcpPGb+2m7TOmatt7Gzd2e5pSN+JYWROxFQ89H/0rArcx2t9SOz7j2FPnwY/nJVottEtrldDugCfPqETLzKOgTfnx4DonPCjw5MWnggiWs46UB2rwgmgREH8z9tvOTdt7m6jXNHWfbaLtbhalZiFiJsK1+vEX3G9+/1yih0ZgXxR1BNHSd82joE11j2gZguWsI+WBGrwgWjomTdi6LlDyr/SY+hlrnviz+83vquK1rCZixg9FEURL3zWPgjbVJaJ16JuWVTjZWUeaYQXRUqGIlgznRJhm7redm7H/9m7ibkNazYAaNm6WYeRz7je/f9bd8b+bq8/Q7Isi8XsG0dJ2zaOgTY28aFUFyyQ760h5oAavH0Vr2j7buKNes4Obud/2fd+DahXSA7vzfza7O5dsjnpgeQiipe+aR0GbGlnRagiWSXbWkfJADV4/iFYsUnMOGnYTx28NVQNah/S+7vzfze7WxRtN8Qqipe+aR0GbGjnRGjj0TUsrxhFABW0TWf0rWpPGj3FHHbaDm/eaHYJIdRjS87p18aZIvLKpFy6IFi0zj4I2NTKiVRMsZx0Bd2zw+k20Zu6/vTv2DTu72X85DGUjgShf6rHno5ZXP/ZntzqbO3Uv5kjlHGKEGS/bLnVeJkYpFtVncJJiMaXJ/K6yIcPFH966HnpdQbT0XfMoaFOdF62EYDnrCLhjg9cPojXvsB3dO4/fteO9qRUPPlfNabp3c/Tv8gerN2ZSiOCIjONohmedl6l7V3PEYkGbOH4oyh+ThNVOpmesfPh5d+Ot66NeVyNufkwpBNGiu7SA8MoSrYG5b1paoYFSp/680SpanRIqESbpIcm/S+/d7NZIb6nWc0oHqO/AEREeoI3D5mqy65hIvOSN6dS9tnYvf+m2UKVMyHDx0qufrPe4gmjpu+ZR0KY6J1qRYCGFHgF3bPBGk2jJ0O+0kya25U2fZH+LKK14QMRpU9R7wpB4fIwHNQgP0EbR0hyIgImQzXjpNm7GS7dtS7rHb/7wnPvid9ZFWfdBtPRd8yhoU50RrbpgIYUeAXds8HpdtIbHbuVOP2mCO+qwHaGsWVQFalMkUsvu3eRWPLCFe8qJTy/qPdHS0NzN6ccLoqXvmkdBm2q/aKX+C6MfSdIPFf15vfzBtPSqPnHOHqU8e5EH4Yt/vcHd8euNkVhFSF0oJEAjPh8e1CA8QFs/JKcOeBWD5+svTQsfTGtlVAuUXVpAeK18MD2k2PRAqVN/Xi+K1uknT3THHr0zUIsgFqlb/vMZt/wBJVdohGd5UHaaajeIls5jhxtEq7i/IcXGA6VO/Xm9IloyBDz3tMlu9kHjgOKLO0SkfvG0W/zfGxI1SMNBtDQHvIrB8/WXpgXR0sqoFii7tIDw4DonvGTBkGJTdukRUMcWr9tFS+aOuuyCvaKpXIpCnkvd8JN1kVCl3uaxi4OGF0RLQxAtndcvojVkRMYDpU79ed0sWpf9c3GxqgrVk+4HN61zGzYq06NYFwfhwY9JeEG0dJ6vvzQtiJZWRrVA2aUFhAfXOeFJwRAwzDY4jwZq8LpRtM49/UWFxeob1z9eE6oXahbSsHVxEB78mIQXREvn+fpL04JoaWVUC5RdWkB4cJ0T3pDKMNvgPBqowesm0Zr32h0LpS1IKsLFC1bVh37Fb84gWjEk74oU0TpQwn9so5IBX3+GQ8n7ihBEi+42WPmi5T2nOw1UcarWMnjdIFry3Or0kycBg+Gqa9dGQ8CUt1E2R7yy01S71nk5Zt4O7u/eutOonE3V1WaT+Na/rXc//OkGuBjpGbMvWi/eaBUtJZWYRsYDJY1DocEbadE6/ZSJXjeNPKs6+2MP6ukJ0JYRoHVxEB78mITXK6J15Nxh95537ALc0YSx2w26f3xbtdceRKt10SJ3aEXdzJSYPFrL4I3UEmLDYwe9hoKST/X371/plj/wrNlwWEJMR/K8DG8/4P7pb0a3WCVxzOsTs3iEJcToboOl84hgmZHxQEnjUGjwRkK05NlVHqRn9eFLHnGr1yY/PCYOoS3OMy8OUgQ/JuF1s2gdM2/HUTsM1DBh162ij77rCKJFdxss5A0yMjjGuvpeD4rWzP3Hgi2Lixf8qdazyvkxkyVBtFTIMOmYo3bQivoLQbToboOVLhjU6lJPZhucR2sZvE6K1swDbMGSt4GLf7WeuTMbDqKF6LfelWDtEy/oy5cF0aK7DVajYDCPDIVmG5xHaxm8TolW3s2z8OdPgQ3b4g0H0WpAhkXHzuu/3tUdSzaDrY4gWnS3waoWDBotQhVtE6txHq1l8NotWrImYB5Wr1EmzEN3ZsNBtKrox96V4Kd3bAJbCkG06G6D5ZHpjp50XoW95mzSXzbQdqU8TBzvOQe55a9ivApO0pRX+yo8/aUPt/tTHiTXzad39ZmvPO5uXbQB7BFIU9Yr+wFPnq+/NG3Afeszk6OH6gwyHJQJA3MRUh7obozBNAM3EZxH1bXLe1p5qPfCrCrW/0DJkj7uaUmSaF7vShbPuHXRerBr/tJ2VtBsj8KPN2XPIVOsBLL4a7Pt0lp92tMapAyFrBaabXAerWXwRkq05r12J78q1o+ZLOlD0ao+u8pPH/nmjesKxpe0s4L2idaRc+wXNi4aDm5sqV1aqw9FS/nvjrbozaOB9qhoyXLycw5OJv4BhZRxYr+Jls+zK+ld3XJ7cijI/dEi46Zrh2i9+hXbgS0JGA7m+GM8WqvPRItcQbRFbx4NtCtFKx/nnrG7m7ZvYuEJy5/1YyZL+kS0ivaumjsvSTsrKFe0ZLWfibsqX7clEA0HC8Rn8WitPhItIlhmi948GmgPipb0Di67cJ8gWrClGdKlx8wv3rvqBdEqNBz08KciiFZqd9COi7bozaOB9rBoyaIUXv6sHzNZMopFq/izq4QHxZ8KVmRc3GWIVuHhYI4/iiBadQzmx0Vb9ObRQHtUtD5/4d7upBN38/Nn/ZjJklEqWs30rlIeSLsAVmRc3K2IVtPDQeKvKI/WGuWiVb+S7Lhoi948GmgPipbgnSeMd5dduLebtu+2+f6sHzNZMspEq1jvCrw03JF2AazIuLibFS2f4eCti3URBgTRorvZglSmux0XbdGbRwPtUdGSt4dfvXTfaC4tWWXH9Gf9mMmSUSRax8zPn5iv2rta36hE0G2ilTcclKXxZThYKTnvq99FazDLsOOiLXrzaKA9KlqCY9+wi/vel6a5k04cH2VzU1g/ZrJkFIiWd+/qB+uoP2i2S0RLltTPGw7emRgOBtHSd82jIE2pme52XLRFbx4NdKREqwRIT+KdJ+wWCZcsZEG/UbR+zGRJj4tW4d4V8QfNdoFo+Q0H028Hg2jpu+ZRKE3ROd3tz4sq7MMhb16FfW/UpL80q8i3h+VCblKZvVT+ZFoamelh4c+fxmbZN1lJWo9+eyjn4Nj5nr2rJtpt7rxQB7wK4b36L/yGg+A7rMajllEtUHaVfm0QrbIwY7/toz9Z3ELm04r/MCYeYC+K1rGFn13Z/jSMlGgVHQ6C7yBaahnVgswuOfP9Jlo2/v59K9xF5+7lJo4nw7wcJHtdMtVyLFxLf7vJbdgUr2XIA+wl0ZK52v16V0+CTfNntTsSotXMcBB8B9FSy6gWJHaJYKUr2HHRFr15NNAuEa3l9z/rTn3viuih+nFv3BXKiyApXq42m6kI19Lfboz+ZQH2imgV713Z/pSdNK3DotXscBB8B9FSy6gW1HaH+JGlK9hx0Ra9eTTQLhEtWdV5wddWR8+kzjhlkpvhMQ+8D+Jh4zuPryaixgImy4hFPbD6atLdL1rD2w1GgpWHb96Q7F1xf90mWlP3zE8WvfN/Npv+0s0G0dLKqBbUh4T0yNKFdly0RW8eDbSLhofS2zrrIw9E88CLcBVd1j4PsYDFkKXFZGXpWMRk1Z4VDz5bPyp6INbFQXititaxRxfsXeX4wyLO64RoyTqKeagPBw1/6WaDaGllTAuGFJuCIFpZLL1nYzRMnHnAsDv5xPFREmk7IM/N5C8pYi4hZCJiGzb+n1vxwLPRIgciaPHS+ebFQU9fc6IV5V0V7V0Z/nzbTdHaLFp+yaJbvPylmw2ipZVpWjDEHfFW7Lhoi948LVCloKl2QbR8YPhbes8Gd9Y9G6Mel6xvmJrsr41gQpaEDC9jRMKWWbVl2W8zb7PIMQpWPFgVRnax+fauFt6+Pt0M8QcYYdGK3g7u5jEc9PSHtCBaWllWC/AXoEeWLrTjoi1683pJtKRQelzyt+Bra9z8w6vCVfZwsSiSYqYK23FgUSFC864PPpg83NTFFs3V7tG7+katdwWn0rp4m+C1Q7SOKjIc9PCnIYiWLgDJEhQspS4rtOMiLQI4r2Oi5QvDX1woD8mv/9GT7oYfPxl9GC3CNefgcU2nRHQDvnH9E9XeFR5uBP9nV880rp0eE63Cw8EcfwxBtHQBiDeHqGN6ZOlCVh2cdKlo+aF4u3Je5AH9gvtXR28XRbxkHq1u6HkVwZrHn3e3/Oczeg2Zq32s37Orb9SfXVV6TrSaHg4Sf/m0IFpaWaXxlpA4pkfm4ObUqoOTPhSt+LyIeMmf9LxkZgcRL3nuJf92s4BJ78rqjR47f2e/3pWInnJRwqm0Lt4meGWIltdwkC1LpvgzbpYELYiWVpZ4S0gc0yNz9OZEdLdo+aM10Yohw8bGZzoDdQGLemEHbK8/bxoByJvIhbXelSZaUe/q6AK9K3JRwqkkPECHRCt3OPh4YjjIbwIWEEUQLRSAzFtC4pgemcu9OTVeEK00LyVg11Wt0/bZNprxQf4VEZtUeyvYSVzyhTWZw02LVqHeFZ6WnhAtr+Fg8ttB+8cuzAuilRYA/CWYY3pkrtDNGURLA/pb/sCz0V9SxAQiXtIjiwRt/NaRqLVDzJbdu9ktjdMiFNEq3LtKglyUcCoJD9BG0fIZDt6yaEOTN2cQLRXG74mCZTmmR+Zaujl1cF43ita8I3Zyx79x1/rzKEnkvP7HT7iFtz1V6nlZes+mqKw+60OGGC+QEYtZ1h5DRG/q3ts4Bnl2xcOrNNe7Iv66WbRe/Rf28Hzj5v+LkmZnvLT6u6e88R87DYO27PfP1eIOouWoYFmO6ZGlC1l1cDIKROvcM3eHhFERrnNP393N3H+su/jKR8s9L+THFFQ/oG4gbusb1zvDIdxpUJxsyr939QTEp/nL7kANwgOULFo+w8Gx2w26Sz80EexlQQTxW//6jLvx1vV9L1qyM1gBViYADcTccGxXz/J8/WV5FbZXSrt6lSxOett4EKskpOykEyeUf14qdCdN8+T5+pOi4r0r25+2AzUID1DiefEZDrYbIoj/+Pad3DFHjqvFrccKaJJHa5XQbsWTZ1SqLfMFLA/HxJwtZNXBSY+K1vzDdwYbcmJB633Rkt7VcUfnH3M0pGyxXahBeICSzkvecLCTeOuRDfHsZ9EaVGwI5piYs4WsOjgZKdHyhVLF52F3mtPbonXs0QV7Vzn+9KLuEK284WAnIdPaDCfOe7+K1mCyglmVOSbmbCGrDk46LFqSzJmHGQfoKz1PmjAmpyZDb4pWod6V7qIne1rdguzH6/0oWoPZCmZV5piYs4WsOjjpoGht2PhnsGUxecIYdTWe1Wu3uI2bXgB+Fjqn90SrcO8KXWg7XjyoQXiAFs6LHEu3QL5V1NBvopXsY+qOoBVSSszZQlYdnHRQtHRBaeC4N+9Wc4H+bo7SFmxwTu+I1vDYAc/e1eNg0/z1gmh95ivGsXQYl16t5LPV4+bHZBwgRxeLVvq/yz4VrSV3k2lBapAkzePfpIvWtd9bG+VcMUjZtd97jJS68s9Lm0Tr2KN38ehdVT/lMb/P7CHRWva7ze79n1ztfvN7/vt2Apde82Q9H4uhX0RrYPZRv0ZGIkfCzJZguRTEnC1k1cFJk7wBtpfhzT9iZ3fumXtajUS9sDPPX1l/5pX8RGV4eCt3+qmTIb1B5n9fcM3qxrzsnTwvPnlV0JbOk2dX371qaq5gffqLq+vfHrrMOQJ4xsd4UIPwACWeF7OI/IiS2/XZ8yZG6Qo+uPTqJ6rzbBF/2KxvsmpzPFqrhHZ9km51wcpU0Ksij7fOC1l1cNJG0ZKs7+uufqkbay0znyNa8abMwOBqszM0FpBAno7uFC1ZIOOdx9urBcmH0m8//X5wEUSrgabFivhjGM2ixc9cHw0Po0n3/j3/eYUI2hUXTYlmVXDK8NDV5nqXv+RqN6xdRPcND6M3g2/weHZ1Q+LNYCo83u6oeXvIihIOWhYrDIhiNA8P7USTRAp9xVJWlmpvVyr3cxWDl97VeSJYkgQ6MSdVQUTrms9PdwuuWeWu/9HjON1yicfR7s94UjTyuYrPs6uN0eIXf3Yzs9Pi6E0hjJ6MfISNoSfOUbYG4QFaPC8AVlSpRN9sFhGrH966HsVKD4hitH7Gw4eESfTJ8HDuITu4T3xoH/DIIIuffuryR6L0Bm14qKN3hocyVPZ5dtVOiBjKjA8/uPkpJXTjuiQ8QJuHh5Ls+S+f28P7HP508Ub3maufADvAviga4Yyy4eFWe0171wXA1NAHovXQI8+5ccNbuf1e4vdJhiSOHn3Ezm7M1oPuvvs3u+efT2j/KBCtt79lV3fQzHIWjG0WY7YecAfN2D4Srt8tf1YJ3bguCQ/QJtESsfrseZO8M+Z/uniD+8xXnyjlZk/TRo9oDWrjRBV98kzryqv/5Bbetg48MsgQ8aS3TXDXffUlbt7hO4E/HdiujpF9pjWvtpx+NyA1OwQ5DjgiwgO04ZlWLFZT9rIfMcS4NRYrbIijD59pQaa7iT4RrU9d/nAh0XI14Tr3zD3cT77zskjAZDjV66LVTSv9SC8l+S0dOw44IsIDlChazYpV3gNnFX0mWmqmu4k+EK1oRs997Xm8GeIe14+//bJIwGQ+LA4eH4u2k6LV9SDHAUdEeIASRCsSq/Ob7FlBCDwGIyCK0SBafnO6Q+3R/fbwQ2ftWU9daAUyRJQ/yVFadNcz7oYfPRE9oG/1ODr19lDi7pZelnzXl/34NwI5DjgiwgN48rS3h0XFauVDW9wXv409+XQI5o/NAqLo9beH+OrCUDnGM2swf8ScLWTVwUlJPa0z/uFFbs4rdwAPrUBu+uPeuKv73pdf7L7/lZdEWfFpQeTxsWg70dO6+KpVYBsp3PFrYxktchxwRIQHaLKn9YF371ZIrN73ydW6CEMIPAYjIIpe7mkNzD7yV3opUTnAKHp7OPeQHd0nzvNPa2gVkjkvSaaL7lof/bt67fM0Poy2ttXmt4cyF/xJJ+w24kuPvffjj9RysowDIccBNQgPUODt4QfeNd4d6TlDKYiV8SNqr/ZzMYrfHnLBIhVUjALRkudW11/zstzPc9oJGYLJJz1L7tkY/St5Xhwjm/KQ67AA7+Pvf5Gb/Zf8ZpeUhjefuqKldqEG4QE8eOe8uwWxqrvWfUOrBs/XX5rWW6JlJ4gY40nGo2NYy59dqSPPtI5/83gvsYq+JzxvpZs+ZVt38tsm5mbGF8HE2nJdsw8eV68lsz3cd/+zUe9LBEyegVV7Yp1/poVtcZ6vP3nuY4mVi4eDLT6DghqEB8jhFRari1a7DZuVYaDxI4ZnWg2eLVhKBYoeFi2ZbeGEv9oNWFnEYrX8/s3R380/WxfN9FC2cCUhq+80lrIfXy9ZVut9LblnU/Td4vIHnouOSO+Vda9owec8CpbmfJ4DIDyoQXgAwisiVvLSIBKr+jAQKObFHUSryvNLwR3lojX3lTv6zdRQE6skRLTkTz7rOe5N4+uzNbQbM2rpEjNI2oQMo+JZJaqC9mz9eGXam9WPPQ918JzxE1iWaM0+KP+Gv+O/Ew/cc/zl8aAG4QEyvHPePcFbrOS3+Nhla9PDQNaUcXEH0RpwQ+0MlAZp+bMrtUW05r4q/63gpy572C1fWRMrxd+iXz4T/U2asI07/s27RiI4ccLIpQTIt2szEounJoeZ9Qf8ynFE6KBozckRLHnQvmFjZghl+PPhQQ3CA9SKjjp0XCGxkmdWKx7MprMYTRkXd7+L1mAcqBdGacrDrAPsi2/pPRvcol8+7eVv9drn3JVXr3In/MPv3Yc/9WCUMe8z7/uIwDiOZl/tUyi8aftsk/tRcKp3hS60HS8e1CC8LI6aOy56I+iDqlitciseNGYLZU0ZF3fFk+frL01rnxY443B9/dWHhP3c0xo71h4OLvxZnNxXrOcW97o+dYUMO3eIhouSOtFNn7yYx9HmntZRr8nv2S7Oy7/qYE9LelYfeLe/WL33olXRg3bmT283aecXd7/2tFLPsPpRtIZzxEqwKpWdbvtjPMl0l78rr1kVJY1Kr04EbNaBY0colcLzOHJu4npJE6I1c3/7gbvMER8/a6Mzl3ZItJoRq3gYWFzMk3Z+cfejaMFD934TrelT/L4ZTFfj/mitxKY8DNiMilgAACAASURBVJc/mQBQEAuYfL8oAta5HpgeH4DcxEArIFqTJmwdTWxnYfGvNiSqVEZMtI46dAdvsRJ89PNrUs+smuuBJu384u430QLBanegNEjLn12p5AfxiHjB1DJFK4lYwOIbMvr4esq2UQ9M2p48YWv6NrB1jIxoeb0d/PXGTHidF63Zfzm2kFh95iuPuWW/w1V2gmjpPHa4zJ8qWO0OlAZp+bMrtVW0JNfq5p89qVQrT7Rc4oaUNISld1fnhk9CxEt6JtXUiQE3q7Yideti1nnRysu/kmHV0ns3gYtOitbUvbaJ0hd8IWJ1y+3rabtBtHQeO1zNHxWsdgdKg7T82ZWaEy0PzDxgOHpYHr8p7IRoabxqlvuWupBdmywcqA4t42dyyWltpifsLlryXHtr2TnRkoUt8npY8LC9w6Ilw9XPfeRF3lMbf+bLj7lbFq0Hf9CscV54fNQBr2LwfP2lad0hWqZgtTtQGqTlz67UNtE676w93Zlrt7j7arlYIyValr84UdTVcq3SaDhpuQdKbnagkZvTJ7t9Wdy7Iu22U7SaEqvba2Kl+INmyXkBsCLj4h7touX1i4z6PC0PSOrDFRdNTT2krzB/pms/nraEmI7ivFLy1yp0J01TeLMPtntXTuthKe22Ywmxaa2IleKPQTsvKliR8SNWPHm+/tK09mmBMw435nnP6R5EqyFasw5s3HD0dJuu+1u05hw0DjhJSO8qva4jb7dM0SoqVjcufDotVmpTvN0gWjqP1io6p3sQrapoXX7RVHfy2ycRD0G0NMRtTdtn21xBaPSuuL+yRWt4u0H3uY/s7i1Wty5a777wLWPx3SBaLbXLahWe0310ilZxnPz2ie6KTzaGiPR0m+32n2gd5bESzx2/Sg4Hub+yREumuPncRwuI1e3r3ae/tJb605vivCBaOk+rlf6FgmgVgrw9vOayF7sz/2H36C0cPd1mu/0lWnkP3GUSwyi7vYmbuBnRisUqL4k1Rl2siD9AEK2W2s3Wwv9SgmgVxnFv2i2arVSGienvEoNoJTFp/NZu6j62MKQetuf404qKiFbTYkX8UQTRaqnd5B4KllKBIYhWA/I9oAwTRbg+dPae9ez4IFoNzDnYftjutMUmDH+M5yNazYjVJV9ai56DaNVonREtnofVBbkZFZaXYfmzK3nmaTUPEa55h+8S/cm0NAujCf6e7Io8rY59KVDR85HyPnaOstt/a+dfmQ1X/PK0qmK1h7dYyfQwV33zMa0ZxQClhXkhT0vnVUzBUiow9LJotRMzoxkZhqOlwyRLfnFtupl+FK3hsUMe2e1KigDxRxv2EK1z3jOpkFi99+OPJmYLJddlEK0arb2ipQ8JsxU8MJqHh6ee+QdlAVR/xL0uWULspu/tHw0ZZX4sPrXN6Bseztw/f1aMZVHvynBYwvDwg++ZGH3Q7INIrC58NDPjqXFdhuFhjdY+LbB7WMkKo7inlQf5HOeUM/7gTnnHJHfcm/2/3NdQFa+doz9X+4RGho5L7q7+q8ZnhNorPa28ZFEH+VfEYQs9LRGrIz0mDXRJsYp7VqRdiIDwAKGn1VS7Q73UJWS/ienPrgQWHZUo8/qKrzzqbv6PJ90Z79o9GuqVAZl5Qf5OelvVWSxgstiFiFj9f3fjOHpBtPIeuEt2+/oNLzQ1c6kP75xWxErxF0RrZLRgqFcCbZ9o+aLqRHpbZ5673M16uTyb2j2adK9MxAIWY83aLW6VrEkYLa662cnsp8mPnBuH2L2i5ZXdXksWbe7mtHkf/KdJXtMxu9pyXO+98BG3YRP5z4y0CxEQHiCIViF/jSFhEC0PNJws+c0Gd8qZf4imnTn+r8aX1uPKQtY7lL/s8mGSYBmJ18rqqjIiZus3vuDWrP1z9XmbebydFa15r83Pbl/8q8YD9zJFq4hYyVvKj176J3jADiDtQgSEBwii5e0v/QwriJYH0jenvP2TP/kgev4Ru7h5R+zSagNeiFeJnmlM3rcssaiqrB6d/aB46T2JFALzvFQLJS0heVplMkERywVfWw3nJekvd+72x56HdRLLEK15h+1QSKykZyUL0jJ/Pu1CDcIDBNHy8jcEx5VTYaQC1XgQO+Gl7VYlX+DNueTuDdHfFV991M1/3S6ReJU9XCyK5Eyk6qykJ4KlMH7wkycTVfC8RHO311eu1sGmkmlFtESsJH3BBymxIv5UEB7UIDxAEK1cf0MQZE6FkQqU8SB2wkvbrUq+wJvT1VZZvv7fHov+5MNoEa45h+yYyHwfXVh8VzZ3Kn1efLLbF//qGbDpP6HxwyWKWhIrxV8QLZ3n6y9Na00LGusSwgnWKwCCaMFmDHlAf9/KR6Ne1/Qp27uZ0bBx5xHveZWFamZ6dmZTlzovXnO317Pb9R+kyM0pz8uKiNX/u/Bht+IBkmMXRCuX5+svTWteC9LrEsIJxgoqelm0PMCqN5xw0Ypx38pNkYBJz0sSRuUtozz3kofpvSpgOA1zErXs9pweVvJhu3UCfW7OeYf5i5XgI5f+qd6z0jLisSm9XSwKopVPa04LIHEUjmu0i5Yn7OrF3rrJsHHRfz1dX9QiErADh930fbdzMw8c27Y3jmVjyT0bzfPik90e9dBKuDnnHDTszvknf7H69BdXV3t29Z9N/4wHm+LxMR7UIDxAEC3wB4IFQXZJoCZ6ULSSm5GA1d42Dny3WjRtynaRgMmzLxlKytqEE7vsOVjcO2LnZc4r7d6VSy6W2sLNOW2fbdwHT5sMXAYRq4W/eAaaCqKlFXSXaNFMdzguwgOMStFKXHhmdRQjHZwX70p+1fJohZ4B5767plo4UP2getzwYDSMrK5TOGZExCxKRYi+r+TnZc7BdkoBzN3exM0pYvX5C/byni00JVZKU0G0tILuES0z0x2Oi/AAfShakspw/F9NqD+PkkROeV4VL8CKyBct2Ku4+veG0awPgIF6gunkiWNSbyZlqBljoDYMzUs3yGLFA41crkV34Rp8KSHZ1ye7XZmdocDNKesttixWSlNJ0ZI1FFMfPwfRyuX5+kvT/LQgN9MdjovwAH0kWuf9v70hYVSE60Nn7xU9m/rkZQ+Bp6y/IqJlHFT9QXj0b5L3vTQz1Yug/jKFlIfnZd5rdwJWFqpgObgz1Iblc5/iYvW0fSAZ0Ro3dqto3qx3ffAhymPxYVEQrXxavhZ4zekOVsIDePK6bmoaE5VU9ZP/ejKIVRJSllxhB5GIIRNOhe2ZYfvx2j01jVd2+5rnwa64g4ZFrC77Z3+x+sFN69zCnz+dsBgHUiuSnpU5yZ8Rnw8PahAewJNXacofdcCrGDxff2mazcNfnFQAK+EBRrloyVAwDxHHbIaLQi+Klld2e9y7svwpN50MZYuI1S3/+bS76tq11J8GmZH08x/dk4uV6oL7YzyoQXiAPhYt/VcnFcBKeIBuF62mEN+c+Q+76xwzCC4KvSZaXtntd7HVksFdHdLruazAMFDE6pKrVlN/WsPSxuc/lhardqwwjVuaAUpJEeeNNtHivzypAFbCA3SpaN23QplDPIPk8vRJTJq4Ndjy4wGLXtjDojXrAOW7xQQaGfKe7VZqPasL9spddSeGKlZqW40dTawaLCNA4g9AeFCD8AB9KFpcsAzHYCU8QBeKlrkkeg3TpujPY1av2eI2etSvcloXhV4QLRGW/Oz25Js621/ssypW9jAzRlWsVnGH0FbFFKsGK4iWhk6Kli1YhmOwEh6gC0UrT3SOft2uWKmGm/7jCbBl0UhtGP2iNfMAXdyTSE1rk+MvfmblLVa/eNpdvGCV7juLStwGFyvpDabDC6KloVOi5fcwgDgGK+EBuky0lvyGvF6vQTLNT3jLBOWAnfvat1dFOVcMUiacRBDqJoLzulm08pJFHU1nQH9FxWrFA8+5BbUH7L43Z/SA/WN7qWIlWHrvJnARREtHJ0RrsFXHYCU8QBeJ1u3/9RTQsjjlHZOrz7IyzciQ8owP/tHd/DPsaS382ZPuzHPvU4adeHPq4LxuFa25OZ/jyMo4eD50f5/44B6FxOrsCx5K+c67OaOe1QVcrFx2YdcgWpoDXsXg+fpL0ypu4FWvvaPKzknYqoPwwEp4AE+eV3Jpk+1KguAN3zgws8w8YmNNnGTWBTzgKmYdWL1h74umLn4hJ5zWkzcH2F4J7RZNLpXs9qs/NxVKk5DZSW/48ZO55+XcM17kjjosf2plV8vAP/uCh6kQpttqZLDniZUMB99++srMMl/Z02cciNKuCsKDGoQH8ORp50UFKzJ+xAFPnq+/GI0hYR/3tGQu9Ov+dS1QshBBu/KSF6s9rRhL7l4f/cU3jx0O9lB0cF439bTmHe6f3W6dl3PPmFxQrKRn9Wcoq0eX6VH4iJXghpvWoVi50NMiDngVg+frL4ZXpjuA8MBKeIAuEK3v/3CN12KpIlpfW/Ay+kwr4VxrRsHoEa28dIbGB9O1Goq/as8qX/hcLFYfSw4DFYeZtuS5mI9YSe/qBzex70CDaBEHvIrB8/XnQLBKcAxWwgOMsGjJRX/5lx6GYoYz3rVH1NuyE0f7R7TkPOQ9b1p0V5zOoJ+XImIl4lcXK8+bThax9RErwSVfWFXrXXF/QbRUB7yKwfP1h4KVU8GHB1bCA4ywaC36r6fc9R5Dwxjy9vDaBS9zp/z1ZK9l5+1welu0/Oa+ys4uWtuqFBMr6f18+JJHcGoafSdCPZfLQ6zk28P6PF3oPI0gWpoDXsXg+fjTBcuoACA8sBIeYIRF6/IvP+xu9sitiiFDxJPfMdnd8PUD3HzJ11Ix+kUrP7v9BWVK5aqT4964SyGxOvujD7rlD+BisuzmLJIl38y3h0G0VAe8isHL8zeIJruCCsIDK+EBRli0LvrsA4VEy9WES6aZWXjdjCgFAntco1e0qtntdv7VIlhdp4p5h+/oTj/Fms2igbpYKStf67FXComVTChYFyvijyKIluaAVzF4lr9BcJRTgYLwwEp4gBEULbnIp5PPcfIQ9bj+erK7+boZ7rz37l1Pc6g59wwHRUEH53VStLKrUmvA3lX1reK5p+8Odg1VsXqgIVZGfEkhveyCPb2/P5TFXPPeCpoNB9HSHPAqBo/548t8ZSu0MFEX+CY8gCev7EkAz3/fPtGc6q1i/hG7Rn/yZkx6bPIZj3x/qE0CiEicNTiBqYOivPQu5/n6S7Mas3J6ZbdLDyvhryWx8ohvePti3x8KjnpNNZVC/Wg61ZbRcOr0hemWNaRD4DzNX2pOd9Z2M47BDCdY5wE6LFpn/eOebu6r/J6n+ELeoEmvS/7kUx35FOjm/3gySi61w+kN0Zp7iP3AXZbMrz8gl7UDj/AXK8GHL344Mwy04yv6SU8SIlrSy4KhIbSlNKwUBdHSCpoXLZjTnbVd1LHGA9+EB+iQaM199U7u+LdMBHuZkKmT5U/mf5fM+dt/+XQkYDJXe7X3BcGaN6cPr52iNXXfbaJ0AQvVdIaqkyI9K8ElC/6Uu1hrcrMVsYpx7NE7R58QqUvoB9ECjllE7jWoYvCSUOd0Z20Xccx44JvwAG0WreHhrdz579sXaO2EPO+Spezn16ZYlqHj0rs3RD2v5Ss3uSV3xzeMfnMiOK9dojX/8J3BlkU8Wd+0fbdxZ5zqv3bgxQv+5Bbe9pTxs6fjk9+wVbGKIcuGLT1tBX+mFUQLwYqMe7eoaKXXJexj0TrhLROVN3sIGdqcec4f3bSp27lT/uZFOYmjxSC+ZA74eUc0qskQUpb7WrWmKmar1m6p9sTo4XGRaYdoSS6ahTi7Xb4zvPwT++b2xmJcvOBRt/C26jzs9s9eDSqvZyVxXHvdY9FKz5f98965s5ZKufS0vnE9eVscRAs4ZpHxIxYRrYFDDltcQWujAq/qTMc+PLASHqDkD6aHxw25G77x8lzBimZmOOeP0bLzsef5r9+1dOHygQwhJZ74I+vqGoYu0StLHHvmNAywPfN0IU+O+ftfeQkwk7jhx0+4hbeta0Ks4hk0EtciiS8Sqwv3VsUqFqr6IhQD8SIW+aIVffzMeln1oOgO5VHRatJf6hyV7A9oTfmjDngVwlNXfu63ntahr9rJU6z+UJ2pIRH7zT99IvqTB/UnvHWCm3mg/QC6LMTL2c95pf6RsPRq4u/2pEe2am16hZp4fcMq9HMUCWF9ri/sac19Zf7bQYmhebFKt6v97EysJKdKZoWAubcqLko6PftjD+aKlpTJEvjV5cH0cxR6WjqPFmk/olaF8HTBylRgbVuOAYQHvgkPUKJozX11/nOYiz57f2P+d+W8yGc98jdp4phoeCkP8Dvd60oiXhU6wgFQ7JzLf7kgPaNPXZ78vjItWj75Vye/bYK3WFV7Y9rcZLpoZcVKelPSk1r486fcahFo9rPXROviq/7kPv6BPaA4idkHjasJFlypWnhBtKg/6oBXUXhcsDIVWNvMsQrCA9+EByhJtGa93O4VLb17vVt0Z+JGMs6L9Gau+PLD0Z/0ukS4pAeXN9dWNyLdC6sffP2Z0RyPHpavWInILLhmtXWRpURr3HBVrCSOH/zkyah+kTwtKZPel/TEZuzHk4TT6ysaDoNoAccsMu5dS7RswXL2zcl4JggPfBMeoATRyhsO3nSr8uDV47zEva5PDgxE4jXr5cPRvyPZ8yqCJXdr6QQuOuJZB+b3rnwhYnPxFY/GrvWTmSmUXpW8RdQ/08Hhq4pKtW1LsGRY2NzNGURL90cd8CoJXr5gOb+bMy8AHx74JjxAC6Ilr8LzsGrNczqjwHmJxeuKLz8STQAovbro78Dhrux9iRBYbyN9elc+qIrVIzWmh8jUCuNPffjP7idaq9caq08nvQXRAoobAdEaoo6g9ugUrWa/GdTahdgJTx7cy188y+n0qdtF3xxOq/3bDT2w+nCQHNTcQ1oXrLRYuexdrLabLbR/dl9/fgiipfM6KVpDaDXQb3laNUyeuI1b4vTZBrLtQuyEl8R9KzbX3z662hBVhFSGkPIQX7YlO76TWPTLpxNxpw9KYvF9NsWAYqU0Zp/MUkRLltUvgiBaOq9TojWkWi30oWgdfeSu7qafPg521i7ETnhpe6OSpBPEc8M3MBCJ1+QJY6KhpDx0lg+0RdzaIWZLs/lcifjmH5H/VtWCTG284OpVBsMWGY3HTis4yfib99ri340G0dJ5nRCtIevHpBhFouUDya2St32pN4UaShQtRCV6piR/khyqVZ9VyzofHjvUmG1ioGGPkUp5ULD4rkTvSrk+4hywZhDlQJ1/f+NjaOU4WLs6mhetOQePMx+4WwiipfPaLVpDUJs5gtqjRLTAokO+MzxjzR8auVgMbRYt6+ZsZLmnh3Rfp/5curEBVtJod9L4MdFnNs1AxOqs81dWlz8rKEZli5Zku597+ouAUQRBtHReO0UrkeZbUTdNJHooZhXPngzjgZXwAL48D8jQ68pPv8RNn+rxP3Kr54WYs4WsOjhpkldR9pp92J4UK1e7IUlD3vExXt55EcGVHC4ry535hpKKH881wQuTACIyv1gQLQtBtCq5HztryIpVwxtvl0bR4nkpLlboG0qCaKloh2gNIjmIlgURra9ftZ874a0e82aNMtHyzW5PYs3a591Z56FYNXzzdvUomj8vstjFVy+d0oRYoW8oCaKlomzRGtTJQbTycOa793QLPvOSKOXBxCgSrezD+zzISjnnffIBZe3ArG/eLkaBm4j0eZHUhcsu3MeddrL/XFysWavhIFo6yhStQU4OopUHeXv49S/sF00vY2bMjxLRmlPg+ZWI1ZnnrUzM9oD+0q3ydn3jy/KkR3jSiePdd7843c3Yv9UEYbqTpgXRUlGWaA1VzAf/Fc+3NBnHo+DtoS/kphDBkiHidT9c46771zVuwwZl+DOCbw81nq+/5ObcQ/SpbLJAsdL9YauVUt4eym9y3Bt3dce/aZeWE1xZs2rDcUl4ewgU1/R5STsYgnIg2xeHij4TLecrXD0sWpK06nPzo1jp/li7rYiWDP1EqOYfvlO5QkWatQIMoqXzWhUtfZkvIOPFkYs+FC2XEC75k4n9JENeFpnQ2oXYfeKzK7VNtEB8FXCxQn9Wu0VFS5bJl7nlZx9sTxNUGuybpRFdEC2guBZFa4gGCuRRKlpthEyfLH8y6+ZNtz4eCVg080MPipY8OJfjsDLkz7vowfpUzc0O5xosW7QkPWHe4Tu3tzdlwb5ZGscRRAsorgXRgkx3u73+FK3TP/B79+H37+sm5b0RJJCbPO51yWo4t99ZnWomO92yCnYcdqW2iNanLnvYXf7JqVAquPjyh6OJDpsZbjJeVrTkob+kVcw6YKybOL7YR8saqjOUPuXeecJ4pdQD9s3SOI4gWkBxTZ6XgVceenvijh1QtjQ/A+qmiQHiG1ybpbk8sBJejFkzdnALLn0Z2JOYfeSvoreAp/7t7u6Etzb5alyB9FhkuCh/ImIbSa6SeRzEnC1k1cFJDk9SG+Tj57mv2jHq2cg0NF//7prEx9LF/GmbMaQXNeuA4UigZpc0/1YMme/92u8/5qbvu637/IV7Q3kSrz32d2p8euycOODJ8/WXPn3l+qNaAAYoJUWcV+S8ZATLCBT82Bebii4ULV/BSvL//m93dzNzplVuBsujebI2RQK2fEV12+s4iDlbyKqDkyZ5A2zPw18068SUqkDNPHBsJCTtGOrJKtRf//5jbuk91XMr89Jf5iNYLuc47JulURJES4XveVEm8CNdQoOHZQTdPjz0wJJlz7jTlj3jDp29izvrPXuZz3SKQmZYkL/5r9s1qrkxWsZLBGxD9OwrnqkBAAesnw37NBR/EJ/lpXc5T87Z9Cnb1lfBnr7vdm5iwXmpikKGf1d+bVV9Udcq6EHqsM6LfbM0aGF4CBRX4LyQCfxIoAYPywhGgWgJbr/jSbfoznXu6CN3c0e/fre29Lhk6mRJTs0uHba6tphq/PYxFrH0/FlJdF604m8OZ9WmopH96txdra/KXATSo7r5508Zq/H4gB8vuOM3S4MWRAsozvO8GBP4kUANHpYRjBLRkvm05O2f/MmkeiJe81+/G/DKRjyfVSwKJ2f8S1pBnIaQFLFVtfm0HHTBnbosfiQ2yumK2p84JuKNqw3lnMc8W53EwppIxXO/a8fROF4fBNECMxigtDAv77xklqrn0djt9bdoycyl8cPzy7/0UNTjOuGYSSN28yZnIG1mdoVehcxkevNt6yKhanxsXfC6NBFEC8xggNLCPOu84Ko54IcEavCwjGCUiZarJVhGme4/XBNNQyPiNXf2zj2ztFevQZ5NLfrlM27hz9e1tuSXN4JogRkMUFqYx84LCpbqhwRq8LCMYBSKVgyZnfTyFQ9FvS4Rr3jYOK3VlXr6HDK/1sKfrXNL7tngVtyfWIKN/pxBtFT0oGgN0QpgJoEaPCwjGEnR8gHxB/4V0Yoh4iV/0vOSnC5Jj3jFy8dFy+SH3pcN6TlJvpc8j1pyz0aYW8vKiG8giJaKHhMtyHTnTo1ADR6WEfSBaMWQYeOiO9ZFi1pc/qWHqwL28nHRcl6vmIFvBfsNIkwiUPLyYMndm3IXrChrlofiCKIFZjBAaWFe8rwMkdqGmQRq8LCMYKREyxfEH/j3XUKs5i8SMPlc586n3Nf+pVokQ0gRMHkbJyImnwWNtp7YmrVb3Kq1z0dZ8qsf2+LuW/ks+XA6/zpqWrQ8YP/sQbTADAYoLcyLz8uQUdswk0ANHpYR9KloZREPIQWxiAlPemKSz/TiqVUxmzxxTFeLWZQzVvtbteb5asrFxhdw3UNn/SB+11EQrdEvWmamO3dqBGrwsIygg6LVFBR/8jD9xGMm1R+oy0fO379xdTRDQ7PxASqVerKofDyt1ZhVS2CdNGmbaNHVrD2GDEOLLsAai00Sycz7aN3EtdU8r6qdi1Fj1/f6aKNoecL+mYJogRkMUFqYl5vpzp0agRo8LCPokGg1jYS/D39gCiSMinCd//4p7hUzdnAXXXp/efHlnJf63Fvyb9LftxMrLZvNNArtcLgYJYKlv3t6l/N8/aVZRUTLB4nr3PyZgmiBGQxQWojnN6e7aa4oWzYPywgqxDe4NkuL83xRqUQzOFjZ7VIm08qUGl+r54WYs4WsOjhpkldheyW029Qc8SZKPi/2zULa4jxff+nwyvVHtQAMUEqKkJde7wjKwUDMJFCDh2UEXS5aMhT04fguix9ECzcRZYuWL4JoqSA8qEF4AIOHC7SBHzAQMwnU4GEZQReLls+kfjEniBZuYjXOo7UMXhAtgh4VLRQsIKsGYiaBGjwsI2iTaP1xxSYoykKSPDXkrkmoIIgWbmI1zqO1DF4QLYIeFK1BGiiYwUDMJFCDh2UEbRCtDRv+DOYsJk/UUwZkjiq2onESsER7EC3YxGqcR2sZPCZazaeDBNFSQXhQg/AAGd6gGSiYwUDMJFCDh2UEbRCt1WueA3MSRx81nvq76dbHwObDCaKFm1iN82gtg6eJlixiYUE+ruYIoqWC8KAG4QESRYMNOqkAZjAQMwnU4GEZQcmidd/yjWBLYtbLd4hmGNX8XfPNR6KcKwYpu+Zbj6qlQbRwE6txHq1l8JLX+ZyDd3Az9h8LnCSiGSAMf0G0CAgPahAeoFY0mKaTCmAGAzGTQA0elhGUKFoye2gezj9nqps+dSz4k89qTnvfve7mWx8HDzf/9HF32vt/Z67pF0QLN7Ea59FaBk+uc5n59ENn7Q5lWSy665lC7QbRYkXGdUl4AMlLO3j2LyqYhYwJW7WCPEMub0A3owHKCEpY2GJ4eMjd+J1XRJ+8WJBnUae/915334qN1F/8gF44kVARHobnecBN8MwazB8xZwtZdXDSJG+A7bXQrjy3uuKiKblLhcnCsCe+649uw8b/M/1phaWcF/tmIW1xnq+/dHjl+qNaAAYojVDtYcH/bkTlwAwGYibqavCwjKCEnpY8eP/+X2R+xwAADgJJREFUD1aBPQsRtAWf20/tacWQRSrkr96rIjwML/S0NF7ZPS3pWX3tsmle6xpe/6Mnai9MuD/WbuhpsSLjuiS8JGimOw0UzGAgZhKowcMyghJESwTL542fiNa1Xz7QnXjsZNOfb7tpWhAtjVeWaB3/pt2inpXP8mHSu7rhR8nvQNGfjiBaKggPahBeDDPTnQYKZjAQMwnU4GEZQYs3p/SyPnHJcrAznPmevaPeFkt5AJB2kRZES+O1IloyBLz8E1Pc6adO9l7r8FNXPKr8BxZES0UHRWur3fc66QJwDM8R9PEkmsFAzGQca/CwjKCFZzcPPrzZTZ68bXXI5wFJHD3hmMlRO7J+4JYtcOoRSrsawjMt3MRqnOdqveF3HDfenXf2Hm6v3f2TfGURi+/ciKkoamNKu1pheKbFiozrUuFVH7prgAsF3ClOVQMxk0ANHpYRtHhzXvW5/Wl2O4P8b3zdjavd929cZb4VtNpFWhAtjZcnWiJUx795t+iv6OrRso7hWeffD64R2K6OIFoqCA9qZHgDB8/+eUWhKWQjUDCDgZhJoAYPywhauDnlreEXPrefm+bZ00oiFq6bbnksyoSnUNrVEEQLN7FadU+GfvNft3NTQuVqi1ucdf5Kt7GJt4JBtHRe2aJVEyyVppppoGAGAzGTQA0elhG0KFpnn7aPO/rI8VDmC1kZWrLcb79jnV5DaVdDEC3cTJbMPWRHN+eQHd28w3eG2r5YeNs6d+U1jRcvA0a7ehRBtBivTNFKCJZKU800UDCDgZhJoAYPywhavDlPfeee7tS/2wPsRSCf/twu4nXLY/Vpj/PaxfCCaCU3p0/Zzs0/Yhc395U7uIktTg997ffWuq9/bw3Yg2gRjKBoZQRLpalmGiiYwUDMJFCDh2UELd6cMmvoxR9/aW5iqQ9i8ZJcrXrPi7SL4fW3aM06cLjWm9qhlDnsJXXhvIsedEt/yz/NCqJFMEKiNXDwq38Ome5I0800UDCDgZhJoAYPywhavDnLGCJqWFQTr//9zXrsfSnoJ9GSXpQstS9CNeuAYTe2hP8wYkRDwKtX5S4h5oJoQbFWRLUAXLQmWlXBArJqUM00UDCDgZj1QC0elhGU8BmP9LZEuJp5IJ8HuXlEvES4RMBkW8NoFS0RJhGo6VO3K12gYsjHzFde/ado3cNsfNZxBNEi6LBoNQQLyKpBNdNAwQwGYsZAcccVuDiSVYhvg6fhDUeNj55v+cw42gpktodVq5+ri9jq1c9Fbx97WbSi5ckmjIkWjJVelOwXXcGnKGQNRHlOdfPPtBcgQbRUdKFopQULyKpBNdNAwQwGYiY3kMHDMoKSRMt1ULiyECGTfC8RMcnSj4eT9VVzkhgB0ZpVW71aBCla2frAcU0tLdYqIqH6bk2oSNgQvMELokXQKdECwQKyalDNNFAwg4GYyQ1k8LCMoETRErxi5o7R94VzX938q/UyES1eurqaB7Z+4wvwfEwVNpd/XrLrG8oK1fHLCOkpdcuCrovvetpd/++P1xZsLVdkgmgRdEC0dMECsmpQzTRQMIOBmMkNZPCwjCDn5mwUmqUp3uRJ20QP5qXn1eleV79DRFp6Ujf/7MloO/2rBdHS0GuiNXDwq2/zznRXDKqZBgpmMBAzERaDh2UEbRCtGPJNogjXobN3DuLVJogwLf7lM5FI3bdyM/yIQbTUnTSth0SrJlhGBTCDQTXTQMEMBmImwmLwsIygjaIVIxYvecs4ber2UB7gD1kyX4Z6dZHK/nJwLZI9/JkK84JoEbRJtBKCZVQAMxhUMw0UzGAgZiIsBg/LCDogWrFvGTbKx9UiXvJv6H3ZkF6UCNSS2p/s6+C/exAtdSdN6wHRygiWUQHMYFDNNFAwg4GYibAYPCwj6KBoJTF50raRcE2ftn21Bzalv3tgcQ9KpuyJBGrNllJEJoiWupOmdbloDRz0qtsqeELAQMxgUM00UDCDgZiJsBg8LCMYIdHK8kTAXjx1ezdp0jbRmzgZUpbxaVA3YaO8vVy5OfoTURKBaiR0agiipaN/RCsSLAySV0AzGFQzDRTMYCBmIiwGD8sIukS0spA8JhEuGVLK5IFRSsHwUCq1oNsQi9KG6N9NbtWaLXVxSs/oWfLNafCCaKk7aVqXilZdsDBIvYJuBoNqpoGCGQzETITF4GEZQZeKlsUTEZMemeAVcb7UwEAkaOMSghYlcDY57FweiU9jtWxJXm08+G7kd61au6U2lMvGDRa1UDk8lRdES+eZ/uybhbTFeZ0UrZRgYZBYgZvBoJppoGAGAzETYTF4WEbQg6Klod9nedA2sRrn0VoGL4gWQYuiNZjl4aT5YCBmMKhmOpk9mMFAzGQye4OHZQRtWBZfA1gJDxAWtoBNBOeVtRqPBm1ZfB1hYQsVxB8IFgZpBABmMKhmGiiYwUDM5AYyeFhGEERLRxAt2ERWEC0VLYjWIHOMJwQMxAwG1UwDBTMYiJncQAYPywiCaOkIogWbyAqipaJJ0RpUrCRIzkMzGFQzDRTMYCBmcgMZPCwjCKKlI4gWbCIriJaKJkRrULXSIDkPzWBQzTRQMIOBmMkNZPCwjCCIlo4gWrCJrCBaKgqK1qBqNYPkPDSDQTXTQMEMBmImN5DBwzKCIFo6gmjBJrKCaKkoIFqDWA4GJUjOQzMYVDMNFMxgIGZyAxk8LCMIoqUjiBZsIiuIlgpP0RrU/YBBCZLz0AwG1UwDBTMYiJncQAYPywiCaOkIogWbyAqipcJDtAYTDKsVEiTnoRkMqpkFimYwEDO5gQwelhEE0dIRRAs2kRVES0WOaKWfYUE5GJQgOQ/NYFDNWqAaTzEQM7mBDB6WEQTR0hFECzaRFURLhSFamDgKfsCgBMl5aAaDag6ihQAr4QGCaMEmgvOCaKk7aVqHRAsFS/UDBiVIzkMzGFRzEC0EWAkPEEQLNhGcF0RL3UnTOiBaNNMdzWBQguQ8NINBNQfRQoCV8ABBtGATwXlBtNSdNK3NomVmuqMZDEqQnIdmMKjmIFoIsBIeIIgWbCI4L4iWupOmtVG0cjPd0QwGJUjOQzMYVHMQLQRYCQ8QRAs2EZwXREvdSdPaJFpeme5oBoMSJOehGQyqOYgWAqyEBwiiBZsIzguipe6kaW0QLe9MdzSDQQmS89AMBtUcRAsBVsIDBNGCTQTnBdFSd9K0kkWrUKY7msGgBMl5aAaDag6ihQAr4QGCaMEmgvOCaKk7aVqJolU40x3NYFCC5Dw0g0E1B9FCgJXwAEG0YBPBeUG01J00rSTRGrTLwUDMYFCC5Dw0g0E1B9FCgJXwAEG0YBPBeUG01J00rQTRGgQT+AEDMYNBCZLz0AwG1RxECwFWwgME0YJNBOcF0VJ30rQWRWsQTZofMBAzGJQgOQ/NYFDNQbQQYCU8QBAt2ERwXhAtdSdNa0G0Bpu6OU0zGJQgOQ/NYFDNQbQQYCU8QBAt2ERwXhAtdSdNa1K0INPd9gMGYgaDEiTnoRkMqjmIFgKshAcIogWbCM4LoqXupGlNiJaa6W77AQMxg0EJkvPQDAbVHEQLAVbCAwTRgk0E5wXRUnfStIKiRTPdbT9gIGYwKEFyHprBoJqDaCHASniAIFqwieC8IFrqTppWQLTMTHfbDxiIGQxKkJyHZjCo5iBaCLASHiCIFmwiOC+IlrqTpnnycjPdbT9gIGYwKEFyHprBoJqDaCHASniAIFqwieC8IFrqTprmwfPKdLf9gIGYwaAEyXloBoNqDqKFACvhAYJowSaC84JoqTtpWg7Pe0532w8YiBkMSpCch2YwqOYgWgiwEh4giBZsIjgviJa6k6YZPJwiGfyQC8Xg2WYwKEFyHprBoJqDaCHASniAIFqwieC8IFrqTppGeChY4DRtIH6YgZjBoATJeWgGg2oOooUAK+EBgmjBJoLzgmipO2mawlPeEjI/5EIxeLYZDEqQnIdmMKjmIFoIsBIeIIgWbCI4L4iWupOmZXjkLSHzQy4Ug2ebwaAEyXloBoNqDqKFACvhAYJowSaC84JoqTtpWqLIeEvI7ORCMXi2GQwQpMVDMxhUcxAtBFgJDxBECzYRnBdES91J02pFOW8JmZ1cKAbPNoMhFWRZ/vBCCaIFZjCARUcQLdhEcF4QLXUnTato6xIyPtjJhWLwbDMY6kGW6Q8PN4gWmMEAFh1BtGATwXlBtNSdFGC2Bm2X28mFYvBsMxiqVjCDgZjBoJqDaCHASniAIFqwieC8IFrqTh3qbA3aLreTC8Xg2WYwVK1gBgMxg0E1B9FCgJXwAEG0YBPBeUG01J0IdLYGbZfbyYVi8GwzGKpWMIOBmMGgmoNoIcBKeIAgWrCJ4LwgWuqOljhqnjnDTi4Ug2ebwVC1ghkMxAwG1RxECwFWwgME0YJNBOcF0cIdRbCADbvcTi4Ug2ebwVC1ghkMxAwG1RxECwFWwgME0YJNBOcF0Urv8Ex3+8wZdnKhGDzbDIaqFcxgIGYwqOYgWgiwEh4giBZsIjgviFZjx850t8+cYScXisGzzWCoWsEMBmIGg2oOooUAK+EBgmjBJoLzgmhVkZ/pbp85w04uFINnm8FQtYIZDMQMBtUcRAsBVsIDBNGCTQTnBdHyzXS3z5xhJxeKwbPNYKhawQwGYgaDag6ihQAr4QGCaMEmgvP6XbQG4WakFYJoqQAzGIg5iFY+LYiWxutn0RqEIM0KQbRUgBkMxBxEK58WREvj9atoJZaqN88IL2A8sJMLxeDZZjBUrWAGAzGDQTXDeSI8xUDMQbTyaUG0NF7fiZZz7v8DBBU4LD75HD8AAAAASUVORK5CYII=;" parent="1" vertex="1">
          <mxGeometry x="760" y="1089" width="50" height="50" as="geometry" />
        </mxCell>
        <mxCell id="uIRy5_l2qU9jPL2Mrv0j-19" value="Client" style="sketch=0;outlineConnect=0;fontColor=#232F3E;gradientColor=none;strokeColor=#232F3E;fillColor=#ffffff;dashed=0;verticalLabelPosition=bottom;verticalAlign=top;align=center;html=1;fontSize=12;fontStyle=0;aspect=fixed;shape=mxgraph.aws4.resourceIcon;resIcon=mxgraph.aws4.client;" parent="1" vertex="1">
          <mxGeometry x="101.72" y="1085" width="60" height="60" as="geometry" />
        </mxCell>
        <mxCell id="uIRy5_l2qU9jPL2Mrv0j-20" value="" style="endArrow=classic;html=1;rounded=0;exitX=1;exitY=0.5;exitDx=0;exitDy=0;exitPerimeter=0;entryX=0;entryY=0.5;entryDx=0;entryDy=0;entryPerimeter=0;" parent="1" source="uIRy5_l2qU9jPL2Mrv0j-5" target="uIRy5_l2qU9jPL2Mrv0j-12" edge="1">
          <mxGeometry width="50" height="50" relative="1" as="geometry">
            <mxPoint x="576.72" y="1180" as="sourcePoint" />
            <mxPoint x="626.72" y="1130" as="targetPoint" />
          </mxGeometry>
        </mxCell>
        <mxCell id="uIRy5_l2qU9jPL2Mrv0j-22" value="Route 53" style="sketch=0;points=[[0,0,0],[0.25,0,0],[0.5,0,0],[0.75,0,0],[1,0,0],[0,1,0],[0.25,1,0],[0.5,1,0],[0.75,1,0],[1,1,0],[0,0.25,0],[0,0.5,0],[0,0.75,0],[1,0.25,0],[1,0.5,0],[1,0.75,0]];outlineConnect=0;fontColor=#232F3E;fillColor=#8C4FFF;strokeColor=#ffffff;dashed=0;verticalLabelPosition=bottom;verticalAlign=top;align=center;html=1;fontSize=12;fontStyle=0;aspect=fixed;shape=mxgraph.aws4.resourceIcon;resIcon=mxgraph.aws4.route_53;" parent="1" vertex="1">
          <mxGeometry x="275.72" y="1090" width="50" height="50" as="geometry" />
        </mxCell>
        <mxCell id="uIRy5_l2qU9jPL2Mrv0j-25" style="edgeStyle=orthogonalEdgeStyle;rounded=0;orthogonalLoop=1;jettySize=auto;html=1;entryX=0;entryY=0.5;entryDx=0;entryDy=0;entryPerimeter=0;" parent="1" source="uIRy5_l2qU9jPL2Mrv0j-19" target="uIRy5_l2qU9jPL2Mrv0j-22" edge="1">
          <mxGeometry relative="1" as="geometry" />
        </mxCell>
        <mxCell id="uIRy5_l2qU9jPL2Mrv0j-27" style="edgeStyle=orthogonalEdgeStyle;rounded=0;orthogonalLoop=1;jettySize=auto;html=1;exitX=1;exitY=0.5;exitDx=0;exitDy=0;exitPerimeter=0;entryX=0;entryY=0.5;entryDx=0;entryDy=0;entryPerimeter=0;" parent="1" source="uIRy5_l2qU9jPL2Mrv0j-22" target="uIRy5_l2qU9jPL2Mrv0j-5" edge="1">
          <mxGeometry relative="1" as="geometry" />
        </mxCell>
        <mxCell id="VzplyFqLDUjWkFrviKMW-1" value="Cognito" style="sketch=0;points=[[0,0,0],[0.25,0,0],[0.5,0,0],[0.75,0,0],[1,0,0],[0,1,0],[0.25,1,0],[0.5,1,0],[0.75,1,0],[1,1,0],[0,0.25,0],[0,0.5,0],[0,0.75,0],[1,0.25,0],[1,0.5,0],[1,0.75,0]];outlineConnect=0;fontColor=#232F3E;fillColor=#DD344C;strokeColor=#ffffff;dashed=0;verticalLabelPosition=bottom;verticalAlign=top;align=center;html=1;fontSize=12;fontStyle=0;aspect=fixed;shape=mxgraph.aws4.resourceIcon;resIcon=mxgraph.aws4.cognito;" parent="1" vertex="1">
          <mxGeometry x="391.08000000000004" y="980" width="49.28" height="49.28" as="geometry" />
        </mxCell>
        <mxCell id="VzplyFqLDUjWkFrviKMW-3" style="edgeStyle=orthogonalEdgeStyle;rounded=0;orthogonalLoop=1;jettySize=auto;html=1;exitX=0.5;exitY=0;exitDx=0;exitDy=0;exitPerimeter=0;entryX=1;entryY=0.5;entryDx=0;entryDy=0;entryPerimeter=0;" parent="1" source="uIRy5_l2qU9jPL2Mrv0j-12" target="VzplyFqLDUjWkFrviKMW-1" edge="1">
          <mxGeometry relative="1" as="geometry" />
        </mxCell>
      </root>
    </mxGraphModel>
  </diagram>
</mxfile>
